<?xml version="1.0" encoding="UTF-8"?>
<!DOCTYPE svg PUBLIC "-//W3C//DTD SVG 1.1//EN" "http://www.w3.org/Graphics/SVG/1.1/DTD/svg11.dtd">
<svg xmlns="http://www.w3.org/2000/svg" version="1.1" width="120px" height="120px" style="shape-rendering:geometricPrecision; text-rendering:geometricPrecision; image-rendering:optimizeQuality; fill-rule:evenodd; clip-rule:evenodd" xmlns:xlink="http://www.w3.org/1999/xlink">
<g><path style="opacity:1" fill="#fefefe" d="M -0.5,-0.5 C 39.5,-0.5 79.5,-0.5 119.5,-0.5C 119.5,5.16667 119.5,10.8333 119.5,16.5C 107.975,6.61059 94.642,3.11059 79.5,6C 71.8175,6.92055 64.4842,8.75389 57.5,11.5C 56.5,11.5 55.5,11.5 54.5,11.5C 41.1158,5.95676 27.1158,4.12343 12.5,6C 8.01514,7.54816 3.68181,9.38149 -0.5,11.5C -0.5,7.5 -0.5,3.5 -0.5,-0.5 Z"/></g>
<g><path style="opacity:1" fill="#e6f4fa" d="M 54.5,11.5 C 50.1422,13.1427 45.6422,14.476 41,15.5C 39.9701,15.8361 39.4701,16.5028 39.5,17.5C 36.3031,14.5157 33.6364,14.8491 31.5,18.5C 20.2531,19.9784 9.5864,23.3117 -0.5,28.5C -0.5,22.8333 -0.5,17.1667 -0.5,11.5C 3.68181,9.38149 8.01514,7.54816 12.5,6C 27.1158,4.12343 41.1158,5.95676 54.5,11.5 Z"/></g>
<g><path style="opacity:1" fill="#0d0e10" d="M 103.5,24.5 C 102.662,24.8417 102.328,25.5084 102.5,26.5C 102.167,26.5 101.833,26.5 101.5,26.5C 96.265,26.6081 94.5983,24.2748 96.5,19.5C 95.1779,19.33 94.0113,19.6634 93,20.5C 92.6667,23.5 92.3333,26.5 92,29.5C 91.586,29.9574 91.086,30.2907 90.5,30.5C 88.8877,29.4514 87.8877,27.9514 87.5,26C 88.4824,24.9456 89.6491,24.4456 91,24.5C 91.49,23.2068 91.6567,21.8734 91.5,20.5C 91.6716,19.5084 91.3382,18.8417 90.5,18.5C 89.8333,16.1667 89.1667,13.8333 88.5,11.5C 92.9017,11.2281 97.2351,11.5614 101.5,12.5C 104.749,15.9927 105.416,19.9927 103.5,24.5 Z"/></g>
<g><path style="opacity:1" fill="#e6f3f9" d="M 119.5,16.5 C 119.5,21.8333 119.5,27.1667 119.5,32.5C 114.27,28.8095 108.937,26.1429 103.5,24.5C 105.416,19.9927 104.749,15.9927 101.5,12.5C 97.2351,11.5614 92.9017,11.2281 88.5,11.5C 89.1667,13.8333 89.8333,16.1667 90.5,18.5C 89.0813,19.4511 87.4147,19.7845 85.5,19.5C 76.2864,16.654 66.9531,13.9874 57.5,11.5C 64.4842,8.75389 71.8175,6.92055 79.5,6C 94.642,3.11059 107.975,6.61059 119.5,16.5 Z"/></g>
<g><path style="opacity:1" fill="#d6edf8" d="M 54.5,11.5 C 55.5,11.5 56.5,11.5 57.5,11.5C 66.9531,13.9874 76.2864,16.654 85.5,19.5C 85.2222,21.3464 85.8888,22.6798 87.5,23.5C 88.5063,23.0623 88.5063,22.3957 87.5,21.5C 88.6888,20.5713 90.0222,20.238 91.5,20.5C 91.6567,21.8734 91.49,23.2068 91,24.5C 89.6491,24.4456 88.4824,24.9456 87.5,26C 87.8877,27.9514 88.8877,29.4514 90.5,30.5C 91.086,30.2907 91.586,29.9574 92,29.5C 92.3333,26.5 92.6667,23.5 93,20.5C 94.0113,19.6634 95.1779,19.33 96.5,19.5C 94.5983,24.2748 96.265,26.6081 101.5,26.5C 97.2525,28.4208 93.5859,31.0875 90.5,34.5C 85.404,38.9447 80.0707,42.9447 74.5,46.5C 73.5041,46.4142 72.6708,46.7476 72,47.5C 71.5065,49.1341 71.3398,50.8008 71.5,52.5C 64.0182,53.492 56.3516,53.8254 48.5,53.5C 46.4687,53.0276 44.8021,52.0276 43.5,50.5C 49.1667,50.5 54.8333,50.5 60.5,50.5C 60.5,48.1667 60.5,45.8333 60.5,43.5C 64.5,43.5 68.5,43.5 72.5,43.5C 72.7678,41.901 72.4345,40.5676 71.5,39.5C 71.0181,36.9541 70.0181,34.6208 68.5,32.5C 66.3432,33.9664 66.0099,35.7997 67.5,38C 65.9069,38.9487 64.5736,40.1154 63.5,41.5C 62.1667,41.5 60.8333,41.5 59.5,41.5C 59.3354,38.4816 59.502,35.4816 60,32.5C 61.2568,34.7458 63.0901,36.0791 65.5,36.5C 65.6567,35.1266 65.49,33.7932 65,32.5C 62.6742,32.12 60.8409,31.12 59.5,29.5C 63.3882,30.9732 67.3882,31.4732 71.5,31C 67.9686,29.5936 64.3019,28.7603 60.5,28.5C 60.5,27.1667 60.5,25.8333 60.5,24.5C 54.1755,23.1673 47.8422,21.834 41.5,20.5C 40.3961,21.6313 40.7295,22.4646 42.5,23C 48.1771,23.8353 53.8438,24.6686 59.5,25.5C 59.5,26.5 59.5,27.5 59.5,28.5C 58.5416,28.9528 57.7083,29.6195 57,30.5C 56.4115,28.1367 54.9115,27.1367 52.5,27.5C 52.1667,27.5 51.8333,27.5 51.5,27.5C 50.6868,26.3473 49.6868,26.3473 48.5,27.5C 47.8333,29.8333 47.1667,32.1667 46.5,34.5C 45.8933,34.3764 45.56,34.0431 45.5,33.5C 44.6919,32.4431 43.0253,31.7764 40.5,31.5C 40.1667,30.8333 39.8333,30.1667 39.5,29.5C 41.4024,28.4891 43.4024,28.3224 45.5,29C 40.4591,30.0076 40.7924,30.5076 46.5,30.5C 46.5,29.5 46.5,28.5 46.5,27.5C 43.1401,27.3841 39.8067,27.0508 36.5,26.5C 35.5104,32.31 35.1771,38.31 35.5,44.5C 34.5098,38.3554 34.1765,32.0221 34.5,25.5C 34.5,25.1667 34.5,24.8333 34.5,24.5C 36.1439,24.7135 37.6439,24.3802 39,23.5C 39.4955,21.5273 39.6621,19.5273 39.5,17.5C 39.4701,16.5028 39.9701,15.8361 41,15.5C 45.6422,14.476 50.1422,13.1427 54.5,11.5 Z"/></g>
<g><path style="opacity:1" fill="#d3edf8" d="M 31.5,18.5 C 31.5,19.8333 31.5,21.1667 31.5,22.5C 31.5,29.1667 31.5,35.8333 31.5,42.5C 30.8333,42.5 30.1667,42.5 29.5,42.5C 28.7436,40.2366 28.5769,37.9033 29,35.5C 28.1627,33.9926 26.9961,33.4926 25.5,34C 24.9838,37.8238 23.9838,41.4905 22.5,45C 22.9891,46.1385 23.3225,47.3052 23.5,48.5C 23.5,50.5 23.5,52.5 23.5,54.5C 15.5,54.5 7.5,54.5 -0.5,54.5C -0.5,45.8333 -0.5,37.1667 -0.5,28.5C 9.5864,23.3117 20.2531,19.9784 31.5,18.5 Z"/></g>
<g><path style="opacity:1" fill="#95b6e6" d="M 90.5,18.5 C 91.3382,18.8417 91.6716,19.5084 91.5,20.5C 90.0222,20.238 88.6888,20.5713 87.5,21.5C 88.5063,22.3957 88.5063,23.0623 87.5,23.5C 85.8888,22.6798 85.2222,21.3464 85.5,19.5C 87.4147,19.7845 89.0813,19.4511 90.5,18.5 Z"/></g>
<g><path style="opacity:1" fill="#62afa2" d="M 39.5,17.5 C 39.6621,19.5273 39.4955,21.5273 39,23.5C 37.6439,24.3802 36.1439,24.7135 34.5,24.5C 34.5,23.8333 34.1667,23.5 33.5,23.5C 33.1583,22.6618 32.4916,22.3284 31.5,22.5C 31.5,21.1667 31.5,19.8333 31.5,18.5C 33.6364,14.8491 36.3031,14.5157 39.5,17.5 Z"/></g>
<g><path style="opacity:1" fill="#71a6fd" d="M 59.5,29.5 C 59.5,29.1667 59.5,28.8333 59.5,28.5C 59.5,27.5 59.5,26.5 59.5,25.5C 53.8438,24.6686 48.1771,23.8353 42.5,23C 40.7295,22.4646 40.3961,21.6313 41.5,20.5C 47.8422,21.834 54.1755,23.1673 60.5,24.5C 60.5,25.8333 60.5,27.1667 60.5,28.5C 64.3019,28.7603 67.9686,29.5936 71.5,31C 67.3882,31.4732 63.3882,30.9732 59.5,29.5 Z"/></g>
<g><path style="opacity:1" fill="#245acb" d="M 33.5,23.5 C 34.1667,23.5 34.5,23.8333 34.5,24.5C 34.5,24.8333 34.5,25.1667 34.5,25.5C 33.8333,31.8333 33.1667,38.1667 32.5,44.5C 32.5,43.8333 32.5,43.1667 32.5,42.5C 32.1765,35.9779 32.5098,29.6446 33.5,23.5 Z"/></g>
<g><path style="opacity:1" fill="#355dca" d="M 51.5,27.5 C 51.8333,27.5 52.1667,27.5 52.5,27.5C 52.67,28.8221 52.3366,29.9887 51.5,31C 50.184,31.5281 49.5173,31.0281 49.5,29.5C 49.8333,28.5 50.5,27.8333 51.5,27.5 Z"/></g>
<g><path style="opacity:1" fill="#9bbde7" d="M 31.5,22.5 C 32.4916,22.3284 33.1583,22.6618 33.5,23.5C 32.5098,29.6446 32.1765,35.9779 32.5,42.5C 32.1667,42.5 31.8333,42.5 31.5,42.5C 31.5,35.8333 31.5,29.1667 31.5,22.5 Z"/></g>
<g><path style="opacity:1" fill="#468cf6" d="M 101.5,26.5 C 101.833,26.5 102.167,26.5 102.5,26.5C 105.435,29.9378 108.601,33.2711 112,36.5C 113.853,40.3237 115.019,44.3237 115.5,48.5C 112.5,48.5 109.5,48.5 106.5,48.5C 104.511,55.1514 102.511,61.8181 100.5,68.5C 99.6648,71.9937 99.6648,75.6603 100.5,79.5C 97.8333,79.5 95.1667,79.5 92.5,79.5C 90.9826,79.4894 89.8159,78.8228 89,77.5C 87.43,73.0733 85.93,68.7399 84.5,64.5C 84.5,64.1667 84.5,63.8333 84.5,63.5C 86.0174,63.4894 87.1841,62.8228 88,61.5C 88.4955,59.5273 88.6621,57.5273 88.5,55.5C 85.4781,55.196 82.4781,54.696 79.5,54C 78.1175,52.7292 77.1175,51.2292 76.5,49.5C 78.7834,49.3921 80.7834,48.5588 82.5,47C 86.2386,43.3833 90.0719,39.8833 94,36.5C 95.8599,31.8847 94.6933,31.218 90.5,34.5C 93.5859,31.0875 97.2525,28.4208 101.5,26.5 Z"/></g>
<g><path style="opacity:1" fill="#bcd3f8" d="M 52.5,27.5 C 54.9115,27.1367 56.4115,28.1367 57,30.5C 57.7083,29.6195 58.5416,28.9528 59.5,28.5C 59.5,28.8333 59.5,29.1667 59.5,29.5C 60.8409,31.12 62.6742,32.12 65,32.5C 65.49,33.7932 65.6567,35.1266 65.5,36.5C 63.0901,36.0791 61.2568,34.7458 60,32.5C 59.502,35.4816 59.3354,38.4816 59.5,41.5C 59.5,41.8333 59.5,42.1667 59.5,42.5C 58.0335,45.2583 57.3668,44.925 57.5,41.5C 56.5,41.5 55.5,41.5 54.5,41.5C 52.1944,41.0074 49.861,40.6741 47.5,40.5C 47.369,39.7611 47.5357,39.0944 48,38.5C 51.0567,39.4505 54.2234,39.7839 57.5,39.5C 57.7678,37.901 57.4345,36.5676 56.5,35.5C 57.6256,34.1417 57.6256,32.8084 56.5,31.5C 54.5808,32.6125 52.9142,33.9458 51.5,35.5C 48.6511,34.0804 47.9844,32.0804 49.5,29.5C 49.5173,31.0281 50.184,31.5281 51.5,31C 52.3366,29.9887 52.67,28.8221 52.5,27.5 Z"/></g>
<g><path style="opacity:1" fill="#f0f6fc" d="M 36.5,26.5 C 37.0998,27.8999 38.0998,28.8999 39.5,29.5C 39.8333,30.1667 40.1667,30.8333 40.5,31.5C 39.1266,31.3433 37.7932,31.51 36.5,32C 39.3508,33.2886 42.3508,33.7886 45.5,33.5C 45.56,34.0431 45.8933,34.3764 46.5,34.5C 47.1667,32.1667 47.8333,29.8333 48.5,27.5C 49.6868,26.3473 50.6868,26.3473 51.5,27.5C 50.5,27.8333 49.8333,28.5 49.5,29.5C 47.9844,32.0804 48.6511,34.0804 51.5,35.5C 53.0496,36.7199 54.7163,36.7199 56.5,35.5C 57.4345,36.5676 57.7678,37.901 57.5,39.5C 54.2234,39.7839 51.0567,39.4505 48,38.5C 47.5357,39.0944 47.369,39.7611 47.5,40.5C 49.6548,42.534 51.9882,42.8674 54.5,41.5C 55.5,41.5 56.5,41.5 57.5,41.5C 57.3668,44.925 58.0335,45.2583 59.5,42.5C 59.5,43.8333 59.5,45.1667 59.5,46.5C 51.3069,46.3836 43.3069,45.7169 35.5,44.5C 35.1771,38.31 35.5104,32.31 36.5,26.5 Z"/></g>
<g><path style="opacity:1" fill="#5678d4" d="M 40.5,31.5 C 43.0253,31.7764 44.6919,32.4431 45.5,33.5C 42.3508,33.7886 39.3508,33.2886 36.5,32C 37.7932,31.51 39.1266,31.3433 40.5,31.5 Z"/></g>
<g><path style="opacity:1" fill="#6a94e6" d="M 36.5,26.5 C 39.8067,27.0508 43.1401,27.3841 46.5,27.5C 46.5,28.5 46.5,29.5 46.5,30.5C 40.7924,30.5076 40.4591,30.0076 45.5,29C 43.4024,28.3224 41.4024,28.4891 39.5,29.5C 38.0998,28.8999 37.0998,27.8999 36.5,26.5 Z"/></g>
<g><path style="opacity:1" fill="#3f5ecb" d="M 56.5,35.5 C 54.7163,36.7199 53.0496,36.7199 51.5,35.5C 52.9142,33.9458 54.5808,32.6125 56.5,31.5C 57.6256,32.8084 57.6256,34.1417 56.5,35.5 Z"/></g>
<g><path style="opacity:1" fill="#6cacf7" d="M 76.5,49.5 C 76.0679,48.2905 75.4013,47.2905 74.5,46.5C 80.0707,42.9447 85.404,38.9447 90.5,34.5C 94.6933,31.218 95.8599,31.8847 94,36.5C 90.0719,39.8833 86.2386,43.3833 82.5,47C 80.7834,48.5588 78.7834,49.3921 76.5,49.5 Z"/></g>
<g><path style="opacity:1" fill="#469089" d="M 29.5,42.5 C 29.0651,44.7033 29.0651,46.7033 29.5,48.5C 27.8333,48.5 26.1667,48.5 24.5,48.5C 24.1667,48.5 23.8333,48.5 23.5,48.5C 23.3225,47.3052 22.9891,46.1385 22.5,45C 23.9838,41.4905 24.9838,37.8238 25.5,34C 26.9961,33.4926 28.1627,33.9926 29,35.5C 28.5769,37.9033 28.7436,40.2366 29.5,42.5 Z"/></g>
<g><path style="opacity:1" fill="#0a3cc0" d="M 38.5,36.5 C 39.0431,36.56 39.3764,36.8933 39.5,37.5C 38.7435,38.7733 38.0768,38.7733 37.5,37.5C 37.5,36.8333 37.8333,36.5 38.5,36.5 Z"/></g>
<g><path style="opacity:1" fill="#aac1ef" d="M 38.5,36.5 C 38.56,35.9569 38.8933,35.6236 39.5,35.5C 40.1719,36.9492 40.8386,38.2825 41.5,39.5C 40.1667,40.1667 38.8333,40.8333 37.5,41.5C 36.1667,40.1667 36.1667,38.8333 37.5,37.5C 38.0768,38.7733 38.7435,38.7733 39.5,37.5C 39.3764,36.8933 39.0431,36.56 38.5,36.5 Z"/></g>
<g><path style="opacity:1" fill="#2253c8" d="M 71.5,39.5 C 71.5,40.5 71.5,41.5 71.5,42.5C 68.6146,42.8064 65.9479,42.4731 63.5,41.5C 64.5736,40.1154 65.9069,38.9487 67.5,38C 66.0099,35.7997 66.3432,33.9664 68.5,32.5C 70.0181,34.6208 71.0181,36.9541 71.5,39.5 Z"/></g>
<g><path style="opacity:1" fill="#74a9fe" d="M 37.5,41.5 C 38.8333,40.8333 40.1667,40.1667 41.5,39.5C 41.1104,34.5776 42.2771,34.2443 45,38.5C 45.8333,43 44,44.8333 39.5,44C 38.6195,43.2917 37.9528,42.4584 37.5,41.5 Z"/></g>
<g><path style="opacity:1" fill="#85f3ea" d="M 29.5,42.5 C 30.1667,42.5 30.8333,42.5 31.5,42.5C 31.8333,42.5 32.1667,42.5 32.5,42.5C 32.5,43.1667 32.5,43.8333 32.5,44.5C 33.8659,47.4246 32.8659,49.0913 29.5,49.5C 29.5,49.1667 29.5,48.8333 29.5,48.5C 29.0651,46.7033 29.0651,44.7033 29.5,42.5 Z"/></g>
<g><path style="opacity:1" fill="#6da5fc" d="M 34.5,25.5 C 34.1765,32.0221 34.5098,38.3554 35.5,44.5C 43.3069,45.7169 51.3069,46.3836 59.5,46.5C 59.5,45.1667 59.5,43.8333 59.5,42.5C 59.5,42.1667 59.5,41.8333 59.5,41.5C 60.8333,41.5 62.1667,41.5 63.5,41.5C 65.9479,42.4731 68.6146,42.8064 71.5,42.5C 71.5,41.5 71.5,40.5 71.5,39.5C 72.4345,40.5676 72.7678,41.901 72.5,43.5C 68.5,43.5 64.5,43.5 60.5,43.5C 60.5,45.8333 60.5,48.1667 60.5,50.5C 54.8333,50.5 49.1667,50.5 43.5,50.5C 41.1667,50.5 38.8333,50.5 36.5,50.5C 35.1667,50.5 33.8333,50.5 32.5,50.5C 32.5,51.8333 32.5,53.1667 32.5,54.5C 30.901,54.7678 29.5676,54.4345 28.5,53.5C 28.2322,51.901 28.5655,50.5676 29.5,49.5C 32.8659,49.0913 33.8659,47.4246 32.5,44.5C 33.1667,38.1667 33.8333,31.8333 34.5,25.5 Z"/></g>
<g><path style="opacity:1" fill="#496ccf" d="M 47.5,40.5 C 49.861,40.6741 52.1944,41.0074 54.5,41.5C 51.9882,42.8674 49.6548,42.534 47.5,40.5 Z"/></g>
<g><path style="opacity:1" fill="#174ac1" d="M 24.5,48.5 C 26.1667,48.5 27.8333,48.5 29.5,48.5C 29.5,48.8333 29.5,49.1667 29.5,49.5C 28.5655,50.5676 28.2322,51.901 28.5,53.5C 27.1667,53.5 25.8333,53.5 24.5,53.5C 24.5,51.8333 24.5,50.1667 24.5,48.5 Z"/></g>
<g><path style="opacity:1" fill="#06318c" d="M 115.5,48.5 C 116.043,48.56 116.376,48.8933 116.5,49.5C 113.056,58.2894 111.222,67.2894 111,76.5C 109.668,78.66 108.168,80.66 106.5,82.5C 104.833,82.5 103.167,82.5 101.5,82.5C 102.141,81.5178 102.807,80.5178 103.5,79.5C 101.367,76.1819 100.367,72.5152 100.5,68.5C 102.511,61.8181 104.511,55.1514 106.5,48.5C 109.5,48.5 112.5,48.5 115.5,48.5 Z"/></g>
<g><path style="opacity:1" fill="#d4edf8" d="M 103.5,24.5 C 108.937,26.1429 114.27,28.8095 119.5,32.5C 119.5,53.8333 119.5,75.1667 119.5,96.5C 116.346,98.3897 113.679,100.723 111.5,103.5C 110.116,97.0122 108.95,90.3456 108,83.5C 107.617,82.944 107.117,82.6107 106.5,82.5C 108.168,80.66 109.668,78.66 111,76.5C 111.222,67.2894 113.056,58.2894 116.5,49.5C 116.376,48.8933 116.043,48.56 115.5,48.5C 115.019,44.3237 113.853,40.3237 112,36.5C 108.601,33.2711 105.435,29.9378 102.5,26.5C 102.328,25.5084 102.662,24.8417 103.5,24.5 Z"/></g>
<g><path style="opacity:1" fill="#6cadf6" d="M 85.5,53.5 C 86.8333,53.5 88.1667,53.5 89.5,53.5C 89.5,52.5 89.5,51.5 89.5,50.5C 92.4186,47.6353 93.752,48.4687 93.5,53C 93.9546,55.9231 92.9546,58.0897 90.5,59.5C 89.5481,57.9547 89.2148,56.288 89.5,54.5C 87.901,54.7678 86.5676,54.4345 85.5,53.5 Z"/></g>
<g><path style="opacity:1" fill="#e1f5fa" d="M 89.5,50.5 C 89.5,51.5 89.5,52.5 89.5,53.5C 88.1667,53.5 86.8333,53.5 85.5,53.5C 86.4363,52.0256 87.7697,51.0256 89.5,50.5 Z"/></g>
<g><path style="opacity:1" fill="#77b6e4" d="M 71.5,52.5 C 72.3382,52.8417 72.6716,53.5084 72.5,54.5C 64.3159,54.8257 56.3159,54.4924 48.5,53.5C 56.3516,53.8254 64.0182,53.492 71.5,52.5 Z"/></g>
<g><path style="opacity:1" fill="#467fdf" d="M 23.5,48.5 C 23.8333,48.5 24.1667,48.5 24.5,48.5C 24.5,50.1667 24.5,51.8333 24.5,53.5C 25.8333,53.5 27.1667,53.5 28.5,53.5C 29.5676,54.4345 30.901,54.7678 32.5,54.5C 33.8333,54.5 35.1667,54.5 36.5,54.5C 36.5,53.1667 36.5,51.8333 36.5,50.5C 38.8333,50.5 41.1667,50.5 43.5,50.5C 44.8021,52.0276 46.4687,53.0276 48.5,53.5C 56.3159,54.4924 64.3159,54.8257 72.5,54.5C 49.1667,55.1667 25.8333,55.8333 2.5,56.5C 2.16667,56.5 1.83333,56.5 1.5,56.5C 1.15829,55.6618 0.491622,55.3284 -0.5,55.5C -0.5,55.1667 -0.5,54.8333 -0.5,54.5C 7.5,54.5 15.5,54.5 23.5,54.5C 23.5,52.5 23.5,50.5 23.5,48.5 Z"/></g>
<g><path style="opacity:1" fill="#b7d8fa" d="M 36.5,50.5 C 36.5,51.8333 36.5,53.1667 36.5,54.5C 35.1667,54.5 33.8333,54.5 32.5,54.5C 32.5,53.1667 32.5,51.8333 32.5,50.5C 33.8333,50.5 35.1667,50.5 36.5,50.5 Z"/></g>
<g><path style="opacity:1" fill="#1c51c6" d="M 74.5,46.5 C 75.4013,47.2905 76.0679,48.2905 76.5,49.5C 77.1175,51.2292 78.1175,52.7292 79.5,54C 82.4781,54.696 85.4781,55.196 88.5,55.5C 88.6621,57.5273 88.4955,59.5273 88,61.5C 87.1841,62.8228 86.0174,63.4894 84.5,63.5C 76.5,63.5 68.5,63.5 60.5,63.5C 60.1818,68.0323 60.5151,72.3656 61.5,76.5C 61.0371,79.4824 60.7038,82.4824 60.5,85.5C 60.5,96.1667 60.5,106.833 60.5,117.5C 59.8333,117.5 59.1667,117.5 58.5,117.5C 58.5,99.5 58.5,81.5 58.5,63.5C 53.5,63.5 48.5,63.5 43.5,63.5C 43.5,81.5 43.5,99.5 43.5,117.5C 43.1667,117.5 42.8333,117.5 42.5,117.5C 42.5,97.1667 42.5,76.8333 42.5,56.5C 29.1667,56.5 15.8333,56.5 2.5,56.5C 25.8333,55.8333 49.1667,55.1667 72.5,54.5C 72.6716,53.5084 72.3382,52.8417 71.5,52.5C 71.3398,50.8008 71.5065,49.1341 72,47.5C 72.6708,46.7476 73.5041,46.4142 74.5,46.5 Z"/></g>
<g><path style="opacity:1" fill="#70a9fe" d="M 1.5,56.5 C 1.83333,56.5 2.16667,56.5 2.5,56.5C 15.8333,56.5 29.1667,56.5 42.5,56.5C 42.5,76.8333 42.5,97.1667 42.5,117.5C 41.5386,115.735 41.2053,113.735 41.5,111.5C 41.5,95.5 41.5,79.5 41.5,63.5C 30.1667,63.5 18.8333,63.5 7.5,63.5C 7.5,77.5 7.5,91.5 7.5,105.5C 7.5,109.5 7.5,113.5 7.5,117.5C 6.5,117.5 5.5,117.5 4.5,117.5C 4.5,112.833 4.5,108.167 4.5,103.5C 4.5,90.1667 4.5,76.8333 4.5,63.5C 3.5,63.5 2.5,63.5 1.5,63.5C 1.5,61.1667 1.5,58.8333 1.5,56.5 Z"/></g>
<g><path style="opacity:1" fill="#adcced" d="M 84.5,63.5 C 84.5,63.8333 84.5,64.1667 84.5,64.5C 83.8333,64.8333 83.1667,65.1667 82.5,65.5C 75.6866,64.5088 68.6866,64.1755 61.5,64.5C 61.5,68.1667 61.5,71.8333 61.5,75.5C 61.5,75.8333 61.5,76.1667 61.5,76.5C 60.5151,72.3656 60.1818,68.0323 60.5,63.5C 68.5,63.5 76.5,63.5 84.5,63.5 Z"/></g>
<g><path style="opacity:1" fill="#d6eef8" d="M -0.5,55.5 C 0.491622,55.3284 1.15829,55.6618 1.5,56.5C 1.5,58.8333 1.5,61.1667 1.5,63.5C 2.5,63.5 3.5,63.5 4.5,63.5C 4.5,76.8333 4.5,90.1667 4.5,103.5C 2.7162,103.107 1.04953,102.441 -0.5,101.5C -0.5,86.1667 -0.5,70.8333 -0.5,55.5 Z"/></g>
<g><path style="opacity:1" fill="#7da2df" d="M 58.5,117.5 C 57.5318,115.393 57.1984,113.059 57.5,110.5C 57.5,95.1667 57.5,79.8333 57.5,64.5C 53.1667,64.5 48.8333,64.5 44.5,64.5C 44.5,79.5 44.5,94.5 44.5,109.5C 44.8064,112.385 44.4731,115.052 43.5,117.5C 43.5,99.5 43.5,81.5 43.5,63.5C 48.5,63.5 53.5,63.5 58.5,63.5C 58.5,81.5 58.5,99.5 58.5,117.5 Z"/></g>
<g><path style="opacity:1" fill="#d2ebf6" d="M 82.5,65.5 C 75.4652,68.8405 68.4652,72.1738 61.5,75.5C 61.5,71.8333 61.5,68.1667 61.5,64.5C 68.6866,64.1755 75.6866,64.5088 82.5,65.5 Z"/></g>
<g><path style="opacity:1" fill="#d5eef8" d="M 41.5,111.5 C 29.6582,112.082 18.3249,110.082 7.5,105.5C 7.5,91.5 7.5,77.5 7.5,63.5C 18.8333,63.5 30.1667,63.5 41.5,63.5C 41.5,79.5 41.5,95.5 41.5,111.5 Z"/></g>
<g><path style="opacity:1" fill="#d6f0f9" d="M 57.5,110.5 C 52.9306,112.116 48.5972,111.782 44.5,109.5C 44.5,94.5 44.5,79.5 44.5,64.5C 48.8333,64.5 53.1667,64.5 57.5,64.5C 57.5,79.8333 57.5,95.1667 57.5,110.5 Z"/></g>
<g><path style="opacity:1" fill="#032f89" d="M 84.5,64.5 C 85.93,68.7399 87.43,73.0733 89,77.5C 89.8159,78.8228 90.9826,79.4894 92.5,79.5C 93.2625,80.2679 94.2625,80.7679 95.5,81C 87.1667,81.3333 78.8333,81.6667 70.5,82C 67.723,84.1734 67.8897,84.6734 71,83.5C 71.4643,84.0944 71.631,84.7611 71.5,85.5C 70.0687,86.7804 69.4021,88.4471 69.5,90.5C 66.6612,88.5797 63.6612,86.9131 60.5,85.5C 60.7038,82.4824 61.0371,79.4824 61.5,76.5C 61.5,76.1667 61.5,75.8333 61.5,75.5C 68.4652,72.1738 75.4652,68.8405 82.5,65.5C 83.1667,65.1667 83.8333,64.8333 84.5,64.5 Z"/></g>
<g><path style="opacity:1" fill="#2050be" d="M 100.5,68.5 C 100.367,72.5152 101.367,76.1819 103.5,79.5C 102.807,80.5178 102.141,81.5178 101.5,82.5C 99.6208,83.3414 97.6208,83.6747 95.5,83.5C 95.5,86.5 95.5,89.5 95.5,92.5C 94.5655,93.5676 94.2322,94.901 94.5,96.5C 93.8333,96.5 93.1667,96.5 92.5,96.5C 92.5,91.8333 92.5,87.1667 92.5,82.5C 89.9407,82.1984 87.6074,82.5318 85.5,83.5C 85.5,84.1667 85.5,84.8333 85.5,85.5C 84.596,84.791 84.2627,83.791 84.5,82.5C 82.2646,82.2053 80.2646,82.5386 78.5,83.5C 75.812,83.1658 73.4786,83.8325 71.5,85.5C 71.631,84.7611 71.4643,84.0944 71,83.5C 67.8897,84.6734 67.723,84.1734 70.5,82C 78.8333,81.6667 87.1667,81.3333 95.5,81C 94.2625,80.7679 93.2625,80.2679 92.5,79.5C 95.1667,79.5 97.8333,79.5 100.5,79.5C 99.6648,75.6603 99.6648,71.9937 100.5,68.5 Z"/></g>
<g><path style="opacity:1" fill="#daf1f7" d="M 78.5,83.5 C 80.1667,83.5 81.8333,83.5 83.5,83.5C 83.7947,85.7354 83.4614,87.7354 82.5,89.5C 80.2621,88.1473 78.9287,86.1473 78.5,83.5 Z"/></g>
<g><path style="opacity:1" fill="#0c328d" d="M 78.5,83.5 C 78.9287,86.1473 80.2621,88.1473 82.5,89.5C 82.8417,90.3382 83.5084,90.6716 84.5,90.5C 86.2393,93.2427 88.5726,95.2427 91.5,96.5C 91.8333,96.5 92.1667,96.5 92.5,96.5C 93.1667,96.5 93.8333,96.5 94.5,96.5C 95.8333,98.1667 95.8333,99.8333 94.5,101.5C 94.5,106.833 94.5,112.167 94.5,117.5C 93.5,117.5 92.5,117.5 91.5,117.5C 90.6345,114.833 89.6345,112.167 88.5,109.5C 86.3501,112.151 84.0168,114.651 81.5,117C 79.0982,117.814 76.7649,117.647 74.5,116.5C 76.0792,115.333 77.4125,114 78.5,112.5C 79.4343,111.228 80.101,109.728 80.5,108C 77.8529,102.527 74.8529,97.3603 71.5,92.5C 71.5,90.1667 71.5,87.8333 71.5,85.5C 73.4786,83.8325 75.812,83.1658 78.5,83.5 Z"/></g>
<g><path style="opacity:1" fill="#6d96df" d="M 85.5,83.5 C 87.6074,82.5318 89.9407,82.1984 92.5,82.5C 92.5,87.1667 92.5,91.8333 92.5,96.5C 92.1667,96.5 91.8333,96.5 91.5,96.5C 91.5,92.1667 91.5,87.8333 91.5,83.5C 89.5,83.5 87.5,83.5 85.5,83.5 Z"/></g>
<g><path style="opacity:1" fill="#d7eef8" d="M 101.5,82.5 C 103.167,82.5 104.833,82.5 106.5,82.5C 107.5,89.1693 108.5,95.8359 109.5,102.5C 106.01,105.241 102.01,106.908 97.5,107.5C 96.7793,102.535 96.1126,97.5346 95.5,92.5C 95.5,89.5 95.5,86.5 95.5,83.5C 97.6208,83.6747 99.6208,83.3414 101.5,82.5 Z"/></g>
<g><path style="opacity:1" fill="#d7f0f9" d="M 85.5,83.5 C 87.5,83.5 89.5,83.5 91.5,83.5C 91.5,87.8333 91.5,92.1667 91.5,96.5C 88.5726,95.2427 86.2393,93.2427 84.5,90.5C 85.3007,88.9582 85.634,87.2915 85.5,85.5C 85.5,84.8333 85.5,84.1667 85.5,83.5 Z"/></g>
<g><path style="opacity:1" fill="#6b92dc" d="M 78.5,83.5 C 80.2646,82.5386 82.2646,82.2053 84.5,82.5C 84.2627,83.791 84.596,84.791 85.5,85.5C 85.634,87.2915 85.3007,88.9582 84.5,90.5C 83.5084,90.6716 82.8417,90.3382 82.5,89.5C 83.4614,87.7354 83.7947,85.7354 83.5,83.5C 81.8333,83.5 80.1667,83.5 78.5,83.5 Z"/></g>
<g><path style="opacity:1" fill="#d4ecf7" d="M 60.5,85.5 C 63.6612,86.9131 66.6612,88.5797 69.5,90.5C 68.7843,97.412 67.451,104.079 65.5,110.5C 64.2921,111.234 62.9587,111.567 61.5,111.5C 61.7947,113.735 61.4614,115.735 60.5,117.5C 60.5,106.833 60.5,96.1667 60.5,85.5 Z"/></g>
<g><path style="opacity:1" fill="#fcfdfe" d="M 119.5,96.5 C 119.5,104.167 119.5,111.833 119.5,119.5C 79.5,119.5 39.5,119.5 -0.5,119.5C -0.5,113.5 -0.5,107.5 -0.5,101.5C 1.04953,102.441 2.7162,103.107 4.5,103.5C 4.5,108.167 4.5,112.833 4.5,117.5C 5.5,117.5 6.5,117.5 7.5,117.5C 7.5,113.5 7.5,109.5 7.5,105.5C 18.3249,110.082 29.6582,112.082 41.5,111.5C 41.2053,113.735 41.5386,115.735 42.5,117.5C 42.8333,117.5 43.1667,117.5 43.5,117.5C 44.4731,115.052 44.8064,112.385 44.5,109.5C 48.5972,111.782 52.9306,112.116 57.5,110.5C 57.1984,113.059 57.5318,115.393 58.5,117.5C 59.1667,117.5 59.8333,117.5 60.5,117.5C 61.4614,115.735 61.7947,113.735 61.5,111.5C 62.9587,111.567 64.2921,111.234 65.5,110.5C 65.5303,119.715 66.1969,119.715 67.5,110.5C 71.2728,111.103 74.9394,111.77 78.5,112.5C 77.4125,114 76.0792,115.333 74.5,116.5C 76.7649,117.647 79.0982,117.814 81.5,117C 84.0168,114.651 86.3501,112.151 88.5,109.5C 89.6345,112.167 90.6345,114.833 91.5,117.5C 92.5,117.5 93.5,117.5 94.5,117.5C 94.5,112.167 94.5,106.833 94.5,101.5C 95.222,106.711 96.0553,112.044 97,117.5C 97.4983,114.183 97.665,110.85 97.5,107.5C 102.01,106.908 106.01,105.241 109.5,102.5C 110.177,107.559 111.177,112.559 112.5,117.5C 112.833,116.833 113.167,116.167 113.5,115.5C 112.444,111.556 111.777,107.556 111.5,103.5C 113.679,100.723 116.346,98.3897 119.5,96.5 Z"/></g>
<g><path style="opacity:1" fill="#d6edf7" d="M 71.5,92.5 C 74.8529,97.3603 77.8529,102.527 80.5,108C 80.101,109.728 79.4343,111.228 78.5,112.5C 74.9394,111.77 71.2728,111.103 67.5,110.5C 68.4707,104.3 69.804,98.3005 71.5,92.5 Z"/></g>
<g><path style="opacity:1" fill="#5675d2" d="M 106.5,82.5 C 107.117,82.6107 107.617,82.944 108,83.5C 108.95,90.3456 110.116,97.0122 111.5,103.5C 111.777,107.556 112.444,111.556 113.5,115.5C 113.167,116.167 112.833,116.833 112.5,117.5C 111.177,112.559 110.177,107.559 109.5,102.5C 108.5,95.8359 107.5,89.1693 106.5,82.5 Z"/></g>
<g><path style="opacity:1" fill="#3f63c8" d="M 71.5,85.5 C 71.5,87.8333 71.5,90.1667 71.5,92.5C 69.804,98.3005 68.4707,104.3 67.5,110.5C 66.1969,119.715 65.5303,119.715 65.5,110.5C 67.451,104.079 68.7843,97.412 69.5,90.5C 69.4021,88.4471 70.0687,86.7804 71.5,85.5 Z"/></g>
<g><path style="opacity:1" fill="#6b8bd9" d="M 95.5,92.5 C 96.1126,97.5346 96.7793,102.535 97.5,107.5C 97.665,110.85 97.4983,114.183 97,117.5C 96.0553,112.044 95.222,106.711 94.5,101.5C 95.8333,99.8333 95.8333,98.1667 94.5,96.5C 94.2322,94.901 94.5655,93.5676 95.5,92.5 Z"/></g>
</svg>
