<svg width="583" height="150" fill="none" xmlns="http://www.w3.org/2000/svg"><path d="M74.917 0h-.004C33.54 0 0 32.906 0 73.497v3.007C0 117.094 33.54 150 74.913 150h.004c41.374 0 74.914-32.906 74.914-73.496v-3.007C149.831 32.906 116.291 0 74.917 0z" fill="#25CFE8"/><path d="M112.222 36.941H95.388L76.056 64.778H74.1L55.747 36.941H38.26l25.305 37.624-27.369 38.494h17.269l20.2-27.946h1.956l19.983 27.946h18.029l-27.369-38.82 25.957-37.298z" fill="#fff"/><path d="M328.687 59.765c-5.62 0-10.881 2.59-12.843 5.805h-.447l-.623-4.733h-10.17v44.65h11.148V83.073c0-7.948 3.926-12.77 10.616-12.77 6.332 0 10.168 4.466 10.168 12.77v22.414h11.148v-22.95c0-14.824-7.939-22.772-18.997-22.772zM281.996 84.412c0 7.68-4.014 11.52-10.346 11.52-6.333 0-10.347-3.84-10.347-11.52V60.837h-11.149v23.665c0 15.36 10.615 22.057 21.496 22.057 10.881 0 21.495-6.698 21.495-22.057V60.837h-11.149M375.228 89.145V70.75h13.199v-9.913h-13.199V47.442h-11.059v13.395h-10.436v9.913h10.436v19.199c0 10.449 4.993 16.431 14.805 16.431 4.013 0 7.402-1.072 10.614-3.125l-4.015-9.377c-4.993 3.304-10.345 1.964-10.345-4.733zM226.626 67.875h-28.362V42.782h-12.22v62.51h12.22V79.573h28.362v25.719h12.22v-62.51h-12.22M483.768 95.932c-7.403 0-12.575-5.359-12.575-12.68 0-7.591 5.172-12.86 12.575-12.86 7.493 0 12.754 5.269 12.754 12.86 0 7.322-5.261 12.68-12.754 12.68zm0-36.167c-13.737 0-23.903 10.45-23.903 23.576 0 12.859 10.166 23.218 23.903 23.218 14.004 0 24.26-10.36 24.26-23.218 0-13.127-10.256-23.576-24.26-23.576zM571.389 60.837l-9.364 25.987h-.984L550.07 60.837h-7.846l-10.795 25.987h-.891l-9.365-25.987H509.49l16.767 44.65h8.026l11.419-26.343h.891l11.416 26.343h7.94l16.767-44.65M440.016 105.487h11.149v-62.51h-11.149v62.51zM421.586 52.532c2.408 0 3.834.535 5.708 1.965l4.102-8.484c-2.854-2.41-6.332-3.75-10.701-3.75-8.653 0-15.075 5.18-15.075 15.717v2.857h-10.436v9.913h10.436v34.737h11.15V70.75h13.199v-9.913H416.77v-3.036c0-3.75 1.783-5.27 4.816-5.27z" fill="#1D1D1F"/></svg>