<svg width="114" height="44" viewBox="0 0 114 44" fill="none" xmlns="http://www.w3.org/2000/svg">
<path d="M37.6 19.7C37.4 18.7 35.8 17.5 33.4 16.6C35.6 15.5 36.4 15.2 36.4 15.2L36.3 14.8C36.3 14.8 35.6 14.8 31.8 16C30.3 15.6 28.6 15.2 26.9 15C23.9 14.6 21.1 14.5 19.1 14.5V5.5C19.1 5.5 17.9 6 17.4 6.2C16.8 6.5 16.9 7 16.9 7V7.4V14.5C16.6 14.5 16.4 14.5 16.4 14.5H16.3V9.2C16.3 9.2 15.1 9.7 14.6 9.9C14 10.2 14.1 10.7 14.1 10.7V11.1V14.6C6.80001 15.1 3.20001 16.9 2.00001 17.6C0.700006 18.3 -1.39999 20.2 1.60001 22.3C4.10001 24 8.80001 24.9 10.2 25.1C7.10001 26.7 5.30001 27.8 5.30001 27.8L5.50001 28.2C5.50001 28.2 12.2 25.6 19.6 25.6H19.7C22.8 25.6 26.2 25.2 28.8 24.7C35.5 23.6 37.9 21.5 37.6 19.7ZM12 24.3C12 24.3 6.8 23.7 4.20001 22C1.60001 20.3 3.40001 18.8 4.50001 18.2C5.30001 17.8 7.50001 16.7 11.5 16.1V16.3V16.7C11.5 16.7 11.5 21.4 11.5 22.9C11.5 23.5 11.9 23.7 12.3 23.5C12.7 23.3 13.1 23.2 13.3 23.1C13.8 22.9 13.7 22.5 13.7 22.5V15.8C13.9 15.8 14.1 15.8 14.3 15.7V22.6C14.3 22.6 15.6 22 16.1 21.8C16.6 21.6 16.5 21.2 16.5 21.2V15.6C16.7 15.6 16.8 15.6 17 15.6C17 15.6 17 15.6 17.1 15.6V21.4C17.1 21.4 18.4 20.8 18.9 20.6C19.4 20.4 19.3 20 19.3 20V15.5C20.9 15.5 23.3 15.6 25.9 15.9C27.3 16.1 28.7 16.4 30 16.7C28.4 17.3 26.5 18 24.1 18.9C19.5 20.7 15.4 22.6 12.3 24.2C12 24.3 12 24.3 12 24.3ZM27.5 24C25.9 24.3 23.8 24.4 21.8 24.5C22 24.2 24.6 21.1 29.6 18.5C30.4 18.1 31.1 17.7 31.8 17.4C33.6 18.1 34.8 18.9 35 19.7C35.2 21.3 33.1 23 27.5 24Z" fill="#4274D4"/>
<path d="M2.2002 36.9V30.3H3.5002L5.8002 34.5L8.2002 30.3H9.4002V36.9H8.2002V32.7L6.3002 36.2H5.4002L3.5002 32.7V36.9H2.2002Z" fill="#4274D4"/>
<path d="M14.9 35.2C15.4 35.2 15.8 35 16.1 34.8C16.4 34.5 16.6 34.1 16.6 33.7C16.6 33.3 16.4 32.9 16.1 32.6C15.8 32.3 15.3 32.1 14.9 32.1V35.2ZM13.6 32.1C13.1 32.1 12.7 32.2 12.4 32.6C12.1 32.9 11.9 33.3 11.9 33.7C11.9 34.1 12.1 34.5 12.4 34.8C12.7 35.1 13.2 35.2 13.6 35.2V32.1ZM13.6 30.2H14.9V30.9C15.8 30.9 16.5 31.2 17.1 31.7C17.7 32.2 18 32.9 18 33.7C18 34.5 17.7 35.1 17.1 35.7C16.5 36.2 15.8 36.5 14.9 36.5V37H13.6V36.3C12.7 36.3 12 36 11.4 35.5C10.8 35 10.5 34.3 10.5 33.5C10.5 32.7 10.8 32.1 11.4 31.5C12 31 12.7 30.7 13.6 30.7V30.2Z" fill="#4274D4"/>
<path d="M26.3 35.2C26.7 34.8 26.9 34.3 26.9 33.6C26.9 33 26.7 32.4 26.3 32C25.9 31.6 25.4 31.4 24.8 31.4C24.2 31.4 23.7 31.6 23.3 32C22.9 32.4 22.7 32.9 22.7 33.6C22.7 34.2 22.9 34.8 23.3 35.2C23.7 35.6 24.2 35.8 24.8 35.8C25.4 35.8 25.9 35.6 26.3 35.2ZM19.1 30.3H20.4V33H21.4C21.5 32.2 21.9 31.5 22.5 31C23.1 30.5 23.9 30.2 24.7 30.2C25.7 30.2 26.5 30.5 27.1 31.2C27.8 31.8 28.1 32.7 28.1 33.6C28.1 34.6 27.8 35.4 27.1 36C26.5 36.6 25.6 37 24.7 37C23.8 37 23.1 36.7 22.4 36.2C21.8 35.7 21.4 35 21.3 34.1H20.3V36.8H19V30.3H19.1Z" fill="#4274D4"/>
<path d="M32.0002 32.1L31.0002 34.5H33.0002L32.0002 32.1ZM28.7002 36.9L31.5002 30.3H32.5002L35.3002 36.9H34.0002L33.5002 35.7H30.5002L30.0002 36.9H28.7002Z" fill="#4274D4"/>
<path d="M60.6 9.30002C60.9 9.60002 61.3 9.80002 61.8 9.80002C62.3 9.80002 62.7 9.60002 63 9.30002C63.3 9.00002 63.5 8.60002 63.5 8.10002C63.5 7.60002 63.3 7.20002 63 6.90002C62.7 6.60002 62.3 6.40002 61.8 6.40002C61.3 6.40002 60.9 6.60002 60.6 6.90002C60.3 7.20002 60.1 7.60002 60.1 8.10002C60.1 8.60002 60.3 9.00002 60.6 9.30002ZM63.6 6.20002C64.1 6.70002 64.4 7.30002 64.4 8.10002C64.4 8.90002 64.1 9.50002 63.6 10C63.1 10.5 62.5 10.8 61.7 10.8C60.9 10.8 60.3 10.5 59.8 10C59.3 9.50002 59 8.90002 59 8.10002C59 7.30002 59.3 6.70002 59.8 6.20002C60.3 5.70002 60.9 5.40002 61.7 5.40002C62.5 5.50002 63.1 5.70002 63.6 6.20002Z" fill="#4274D4"/>
<path d="M69.2001 5.90002C69.6001 6.20002 69.9001 6.50002 70.2001 6.90002L69.3001 7.30002C69.0001 6.80002 68.5001 6.40002 67.9001 6.40002C67.4001 6.40002 67.0001 6.60002 66.7001 6.90002C66.4001 7.20002 66.2001 7.60002 66.2001 8.10002C66.2001 8.60002 66.4001 9.00002 66.7001 9.30002C67.0001 9.60002 67.4001 9.80002 67.9001 9.80002C68.5001 9.80002 69.0001 9.50002 69.3001 9.00002L70.2001 9.40002C70.0001 9.80002 69.7001 10.2 69.2001 10.4C68.8001 10.7 68.3001 10.8 67.8001 10.8C67.0001 10.8 66.4001 10.5 65.9001 10C65.4001 9.50002 65.1001 8.90002 65.1001 8.10002C65.1001 7.30002 65.4001 6.70002 65.9001 6.20002C66.4001 5.70002 67.0001 5.40002 67.8001 5.40002C68.3001 5.50002 68.8001 5.60002 69.2001 5.90002Z" fill="#4274D4"/>
<path d="M77.1001 9.30002C77.4001 9.60002 77.8001 9.80002 78.3001 9.80002C78.8001 9.80002 79.2001 9.60002 79.5001 9.30002C79.8001 9.00002 80.0001 8.60002 80.0001 8.10002C80.0001 7.60002 79.8001 7.20002 79.5001 6.90002C79.2001 6.60002 78.8001 6.40002 78.3001 6.40002C77.8001 6.40002 77.4001 6.60002 77.1001 6.90002C76.8001 7.20002 76.6001 7.60002 76.6001 8.10002C76.6001 8.60002 76.8001 9.00002 77.1001 9.30002ZM80.2001 6.20002C80.7001 6.70002 81.0001 7.30002 81.0001 8.10002C81.0001 8.90002 80.7001 9.50002 80.2001 10C79.7001 10.5 79.1001 10.8 78.3001 10.8C77.5001 10.8 76.9001 10.5 76.4001 10C75.9001 9.50002 75.6001 8.90002 75.6001 8.10002C75.6001 7.30002 75.9001 6.70002 76.4001 6.20002C76.9001 5.70002 77.5001 5.40002 78.3001 5.40002C79.0001 5.50002 79.7001 5.70002 80.2001 6.20002Z" fill="#4274D4"/>
<path d="M82.7998 8.49998V9.79998H84.3998C84.7998 9.79998 84.9998 9.49998 84.9998 9.19998C84.9998 8.79998 84.6998 8.59998 84.3998 8.59998H82.7998V8.49998ZM82.7998 6.49998V7.59998H84.2998C84.5998 7.59998 84.8998 7.39998 84.8998 6.99998C84.8998 6.69998 84.6998 6.39998 84.2998 6.39998H82.7998V6.49998ZM81.7998 10.7V5.59998H84.2998C84.7998 5.59998 85.0998 5.69998 85.3998 5.99998C85.6998 6.29998 85.8998 6.59998 85.8998 6.99998C85.8998 7.39998 85.6998 7.79998 85.3998 7.99998C85.8998 8.29998 86.0998 8.69998 86.0998 9.19998C86.0998 9.59998 85.8998 9.99998 85.5998 10.2C85.2998 10.5 84.8998 10.6 84.3998 10.6H81.7998V10.7Z" fill="#4274D4"/>
<path d="M90.8002 5.90002C91.2002 6.20002 91.5002 6.50002 91.8002 6.90002L90.9002 7.30002C90.6002 6.80002 90.1002 6.40002 89.5002 6.40002C89.0002 6.40002 88.6002 6.60002 88.3002 6.90002C88.0002 7.20002 87.8002 7.60002 87.8002 8.10002C87.8002 8.60002 88.0002 9.00002 88.3002 9.30002C88.6002 9.60002 89.0002 9.80002 89.5002 9.80002C90.1002 9.80002 90.6002 9.50002 90.9002 9.00002L91.8002 9.40002C91.6002 9.80002 91.3002 10.2 90.8002 10.4C90.4002 10.7 89.9002 10.8 89.4002 10.8C88.6002 10.8 88.0002 10.5 87.5002 10C87.0002 9.50002 86.7002 8.90002 86.7002 8.10002C86.7002 7.30002 87.0002 6.70002 87.5002 6.20002C88.0002 5.70002 88.6002 5.40002 89.4002 5.40002C89.9002 5.50002 90.4002 5.60002 90.8002 5.90002Z" fill="#4274D4"/>
<path d="M104.8 4C104.8 4.3 105 4.5 105.4 4.5C105.7 4.5 106 4.3 106 4H106.8C106.8 4.4 106.7 4.7 106.4 4.9C106.1 5.1 105.8 5.3 105.5 5.3C105.1 5.3 104.8 5.2 104.5 4.9C104.1 4.6 104 4.3 104 4H104.8ZM104 10.7H103.1V5.6H104.1V9L106.7 5.5H107.6V10.6H106.6V7.2L104 10.7Z" fill="#4274D4"/>
<path d="M55.7999 18C56.1999 18 56.4999 17.9 56.7999 17.7C57.0999 17.5 57.1999 17.2 57.1999 16.8C57.1999 16.5 57.0999 16.2 56.7999 15.9C56.4999 15.7 56.1999 15.6 55.7999 15.6V18ZM54.7999 15.6C54.3999 15.6 54.0999 15.7 53.7999 15.9C53.4999 16.1 53.3999 16.4 53.3999 16.8C53.3999 17.1 53.4999 17.4 53.7999 17.7C54.0999 17.9 54.3999 18 54.7999 18V15.6ZM54.7999 14.2H55.7999V14.7C56.4999 14.7 56.9999 14.9 57.4999 15.3C57.9999 15.7 58.1999 16.2 58.1999 16.8C58.1999 17.4 57.9999 17.9 57.4999 18.3C56.9999 18.7 56.4999 18.9 55.7999 18.9V19.4H54.7999V19C54.0999 19 53.5999 18.8 53.0999 18.4C52.5999 18 52.3999 17.5 52.3999 16.9C52.3999 16.3 52.5999 15.8 53.0999 15.4C53.5999 15 54.0999 14.8 54.7999 14.8V14.2Z" fill="#4274D4"/>
<path d="M84.9998 14.6C85.3998 14.9 85.6998 15.2 85.9998 15.6L84.9998 16C84.6998 15.5 84.1998 15.1 83.5998 15.1C83.0998 15.1 82.6998 15.3 82.3998 15.6C82.0998 15.9 81.8998 16.3 81.8998 16.8C81.8998 17.3 82.0998 17.7 82.3998 18C82.6998 18.3 83.0998 18.5 83.5998 18.5C84.1998 18.5 84.6998 18.2 84.9998 17.7L85.8998 18.1C85.6998 18.5 85.3998 18.9 84.8998 19.1C84.4998 19.4 83.9998 19.5 83.4998 19.5C82.6998 19.5 82.0998 19.2 81.5998 18.7C81.0998 18.2 80.7998 17.6 80.7998 16.8C80.7998 16 81.0998 15.4 81.5998 14.9C82.0998 14.4 82.6998 14.1 83.4998 14.1C84.0998 14.2 84.4998 14.3 84.9998 14.6Z" fill="#4274D4"/>
<path d="M88 18.1C88.3 18.4 88.7 18.6 89.2 18.6C89.7 18.6 90.1 18.4 90.4 18.1C90.7 17.8 90.9 17.4 90.9 16.9C90.9 16.4 90.7 16 90.4 15.7C90.1 15.4 89.7 15.2 89.2 15.2C88.7 15.2 88.3 15.4 88 15.7C87.7 16 87.5 16.4 87.5 16.9C87.6 17.3 87.7 17.7 88 18.1ZM91.1 14.9C91.6 15.4 91.9 16 91.9 16.8C91.9 17.6 91.6 18.2 91.1 18.7C90.6 19.2 90 19.5 89.2 19.5C88.4 19.5 87.8 19.2 87.3 18.7C86.8 18.2 86.5 17.6 86.5 16.8C86.5 16 86.8 15.4 87.3 14.9C87.8 14.4 88.4 14.1 89.2 14.1C90 14.2 90.6 14.4 91.1 14.9Z" fill="#4274D4"/>
<path d="M93.7002 17.2V18.5H95.3002C95.7002 18.5 95.9002 18.2 95.9002 17.9C95.9002 17.5 95.6002 17.3 95.3002 17.3H93.7002V17.2ZM93.7002 15.2V16.3H95.2002C95.5002 16.3 95.8002 16.1 95.8002 15.7C95.8002 15.4 95.6002 15.1 95.2002 15.1H93.7002V15.2ZM92.7002 19.4V14.3H95.2002C95.7002 14.3 96.0002 14.4 96.3002 14.7C96.6002 15 96.8002 15.3 96.8002 15.7C96.8002 16.1 96.6002 16.5 96.3002 16.7C96.8002 17 97.0002 17.4 97.0002 17.9C97.0002 18.3 96.8002 18.7 96.5002 18.9C96.2002 19.2 95.8002 19.3 95.3002 19.3H92.7002V19.4Z" fill="#4274D4"/>
<path d="M99.2001 18.1C99.5001 18.4 99.9001 18.6 100.4 18.6C100.9 18.6 101.3 18.4 101.6 18.1C101.9 17.8 102.1 17.4 102.1 16.9C102.1 16.4 101.9 16 101.6 15.7C101.3 15.4 100.9 15.2 100.4 15.2C99.9001 15.2 99.5001 15.4 99.2001 15.7C98.9001 16 98.7001 16.4 98.7001 16.9C98.7001 17.3 98.8001 17.7 99.2001 18.1ZM102.2 14.9C102.7 15.4 103 16 103 16.8C103 17.6 102.7 18.2 102.2 18.7C101.7 19.2 101.1 19.5 100.3 19.5C99.5001 19.5 98.9001 19.2 98.4001 18.7C97.9001 18.2 97.6001 17.6 97.6001 16.8C97.6001 16 97.9001 15.4 98.4001 14.9C98.9001 14.4 99.5001 14.1 100.3 14.1C101.1 14.2 101.7 14.4 102.2 14.9Z" fill="#4274D4"/>
<path d="M58.1 26.8C58.4 26.5 58.6 26.1 58.6 25.6C58.6 25.1 58.4 24.7 58.1 24.4C57.8 24.1 57.4 23.9 56.9 23.9C56.4 23.9 56 24.1 55.7 24.4C55.4 24.7 55.2 25.1 55.2 25.6C55.2 26.1 55.4 26.5 55.7 26.8C56 27.1 56.4 27.3 56.9 27.3C57.4 27.3 57.8 27.1 58.1 26.8ZM52.6 23H53.6V25.1H54.4C54.5 24.5 54.8 23.9 55.3 23.5C55.8 23.1 56.4 22.9 57 22.9C57.8 22.9 58.4 23.2 58.9 23.7C59.4 24.2 59.7 24.8 59.7 25.6C59.7 26.4 59.4 27 58.9 27.5C58.4 28 57.8 28.3 57 28.3C56.3 28.3 55.7 28.1 55.2 27.7C54.7 27.3 54.4 26.7 54.3 26.1H53.5V28.2H52.5V23H52.6Z" fill="#4274D4"/>
<path d="M61.5 23.9V25.4H62.8C63.2 25.4 63.5 25.1 63.5 24.7C63.5 24.3 63.2 24 62.8 24H61.5V23.9ZM61.5 28.1H60.5V23H62.8C63.3 23 63.7 23.2 64.1 23.5C64.4 23.8 64.6 24.2 64.6 24.7C64.6 25.2 64.4 25.6 64.1 25.9C63.8 26.2 63.4 26.4 62.8 26.4H61.5V28.1Z" fill="#4274D4"/>
<path d="M74.6002 27.2V23.9H72.8002V25.5C72.8002 26.2 72.7002 26.8 72.5002 27.2H74.6002ZM71.7002 29.3H70.7002V27.2H71.3002C71.6002 27.1 71.8002 26.5 71.8002 25.5V23H75.6002V27.2H76.4002V29.3H75.4002V28.1H71.7002V29.3Z" fill="#4274D4"/>
<path d="M82.3999 24.6V23H83.3999V24.5C83.3999 25 83.7999 25.3 84.5999 25.3C84.9999 25.3 85.2999 25.3 85.6999 25.2V23H86.6999V28.1H85.6999V26.1C85.3999 26.2 84.9999 26.2 84.5999 26.2C83.2999 26.3 82.3999 25.7 82.3999 24.6Z" fill="#4274D4"/>
<path d="M96.1 23.3C96.5 23.6 96.8 23.9 97.1 24.3L96.2 24.7C95.9 24.2 95.4 23.8 94.8 23.8C94.3 23.8 93.9 24 93.6 24.3C93.3 24.6 93.1 25 93.1 25.5C93.1 26 93.3 26.4 93.6 26.7C93.9 27 94.3 27.2 94.8 27.2C95.4 27.2 95.9 26.9 96.2 26.4L97.1 26.8C96.9 27.2 96.6 27.6 96.1 27.8C95.7 28.1 95.2 28.2 94.7 28.2C93.9 28.2 93.3 27.9 92.8 27.4C92.3 27 92 26.3 92 25.6C92 24.8 92.3 24.2 92.8 23.7C93.3 23.2 93.9 22.9 94.7 22.9C95.2 22.9 95.7 23 96.1 23.3Z" fill="#4274D4"/>
<path d="M110.1 21.4C110.1 21.7 110.3 21.9 110.7 21.9C111 21.9 111.3 21.7 111.3 21.4H112.1C112.1 21.8 112 22.1 111.7 22.3C111.4 22.5 111.1 22.7 110.8 22.7C110.4 22.7 110.1 22.6 109.8 22.3C109.5 22.1 109.4 21.8 109.4 21.4H110.1ZM109.3 28.1H108.4V23H109.4V26.5L112 23H112.9V28.1H111.9V24.7L109.3 28.1Z" fill="#4274D4"/>
<path d="M52.2998 31.7H53.3998L54.8998 34.4L56.1998 31.7H57.1998L55.4998 35.3C54.9998 36.3 54.3998 36.8 53.5998 36.8H53.0998V35.9H53.4998C53.7998 35.9 54.0998 35.7 54.3998 35.4L52.2998 31.7Z" fill="#4274D4"/>
<path d="M69.7999 34.7V36H71.3999C71.7999 36 71.9999 35.7 71.9999 35.4C71.9999 35 71.6999 34.8 71.3999 34.8H69.7999V34.7ZM69.7999 32.6V33.7H71.2999C71.5999 33.7 71.8999 33.5 71.8999 33.1C71.8999 32.8 71.6999 32.5 71.2999 32.5H69.7999V32.6ZM68.8999 36.8V31.7H71.3999C71.8999 31.7 72.1999 31.8 72.4999 32.1C72.7999 32.4 72.9999 32.7 72.9999 33.1C72.9999 33.5 72.7999 33.9 72.4999 34.1C72.9999 34.4 73.1999 34.8 73.1999 35.3C73.1999 35.7 72.9999 36.1 72.6999 36.3C72.3999 36.6 71.9999 36.7 71.4999 36.7H68.8999V36.8Z" fill="#4274D4"/>
<path d="M79.6001 32.6V34.1H80.9001C81.3001 34.1 81.6001 33.8 81.6001 33.4C81.6001 33 81.3001 32.7 80.9001 32.7H79.6001V32.6ZM79.6001 36.8H78.6001V31.7H80.9001C81.4001 31.7 81.8001 31.9 82.2001 32.2C82.5001 32.5 82.7001 32.9 82.7001 33.4C82.7001 33.9 82.5001 34.3 82.2001 34.6C81.9001 34.9 81.4001 35.1 80.9001 35.1H79.6001V36.8Z" fill="#4274D4"/>
<path d="M87.3998 32C87.7998 32.3 88.0998 32.6 88.3998 33L87.4998 33.4C87.1998 32.9 86.6998 32.5 86.0998 32.5C85.5998 32.5 85.1998 32.7 84.8998 33C84.5998 33.3 84.3998 33.7 84.3998 34.2C84.3998 34.7 84.5998 35.1 84.8998 35.4C85.1998 35.7 85.5998 35.9 86.0998 35.9C86.6998 35.9 87.1998 35.6 87.4998 35.1L88.3998 35.5C88.1998 35.9 87.8998 36.3 87.3998 36.5C86.9998 36.8 86.4998 36.9 85.9998 36.9C85.1998 36.9 84.5998 36.6 84.0998 36.1C83.5998 35.6 83.2998 35 83.2998 34.2C83.2998 33.4 83.5998 32.8 84.0998 32.3C84.5998 31.8 85.1998 31.5 85.9998 31.5C86.4998 31.6 86.8998 31.8 87.3998 32Z" fill="#4274D4"/>
<path d="M52.6001 10.7V5.59998H53.6001L55.4001 8.79998L57.2001 5.59998H58.2001V10.7H57.2001V7.39998L55.7001 10.1H55.1001L53.6001 7.39998V10.7H52.6001Z" fill="#4274D4"/>
<path d="M71 5.59998H72V7.79998L73.9 5.59998H75.2L73.1 8.09998L75.3 10.7H74.1L72 8.29998V10.7H71V5.59998Z" fill="#4274D4"/>
<path d="M92.6001 5.59998H93.6001V7.79998L95.5001 5.59998H96.7001L94.6001 8.09998L96.9001 10.7H95.7001L93.6001 8.29998V10.7H92.6001V5.59998Z" fill="#4274D4"/>
<path d="M97.6001 10.7V5.59998H98.5001V8.99998L101.1 5.59998H102V10.7H101.1V7.19998L98.5001 10.7H97.6001Z" fill="#4274D4"/>
<path d="M59.1001 19.4V14.3H60.1001V17.7L62.7001 14.3H63.6001V19.4H62.6001V16L60.0001 19.4H59.1001Z" fill="#4274D4"/>
<path d="M64.6001 19.4V14.3H65.6001V16.4H68.1001V14.3H69.0001V19.4H68.1001V17.3H65.6001V19.4H64.6001Z" fill="#4274D4"/>
<path d="M72.3002 15.7L71.5002 17.5H73.0002L72.3002 15.7ZM69.7002 19.4L71.9002 14.3H72.7002L74.9002 19.4H73.9002L73.5002 18.4H71.2002L70.8002 19.4H69.7002Z" fill="#4274D4"/>
<path d="M75.5 19.4V14.3H76.5V16.4H79V14.3H80V19.4H79V17.3H76.5V19.4H75.5Z" fill="#4274D4"/>
<path d="M106 16.4H103.9V17.2H106V16.4Z" fill="#4274D4"/>
<path d="M65.3999 28.1V23H66.3999V26.5L68.9999 23H69.8999V28.1H68.8999V24.7L66.2999 28.1H65.3999Z" fill="#4274D4"/>
<path d="M77.1001 28.1V23H78.1001V26.5L80.7001 23H81.6001V28.1H80.6001V24.7L78.0001 28.1H77.1001Z" fill="#4274D4"/>
<path d="M91.4002 23V23.9H88.7002V25.1H91.0002V26H88.7002V27.2H91.5002V28.1H87.7002V23H91.4002Z" fill="#4274D4"/>
<path d="M97.8999 23H98.8999V25.3L100.8 23H102.1L99.9999 25.5L102.2 28.1H101L98.8999 25.7V28.1H97.8999V23Z" fill="#4274D4"/>
<path d="M102.9 28.1V23H103.9V26.5L106.5 23H107.4V28.1H106.4V24.7L103.8 28.1H102.9Z" fill="#4274D4"/>
<path d="M57.8999 36.8V31.7H58.7999V33.8H61.2999V31.7H62.2999V36.8H61.2999V34.7H58.7999V36.8H57.8999Z" fill="#4274D4"/>
<path d="M63.2998 36.8V31.7H64.2998V35.2L66.8998 31.7H67.7998V36.8H66.7998V33.4L64.1998 36.8H63.2998Z" fill="#4274D4"/>
<path d="M77.7 31.7V32.6H75V33.8H77.3V34.7H75V35.9H77.8V36.8H74V31.7H77.7Z" fill="#4274D4"/>
<path d="M89.2002 36.8V31.7H90.1002V35.2L92.7002 31.7H93.6002V36.8H92.7002V33.4L90.1002 36.8H89.2002Z" fill="#4274D4"/>
<path d="M94.3999 32.6V31.7H98.7999V32.6H97.0999V36.8H96.0999V32.6H94.3999Z" fill="#4274D4"/>
<path d="M103.3 31.7V32.6H100.5V33.8H102.9V34.7H100.5V35.9H103.3V36.8H99.6001V31.7H103.3Z" fill="#4274D4"/>
<path d="M103.9 32.6V31.7H108.3V32.6H106.6V36.8H105.6V32.6H103.9Z" fill="#4274D4"/>
<path d="M45.3998 5.59998H44.7998V37.1H45.3998V5.59998Z" fill="#4274D4"/>
</svg>
