<?xml version="1.0" encoding="UTF-8"?> <svg xmlns="http://www.w3.org/2000/svg" width="709" height="645" viewBox="0 0 709 645" fill="none"> <path d="M685.199 123.488H199.859C187.803 123.488 178.029 133.262 178.029 145.318V454.328C178.029 466.385 187.803 476.158 199.859 476.158H685.199C697.256 476.158 707.029 466.385 707.029 454.328V145.318C707.029 133.262 697.256 123.488 685.199 123.488Z" fill="white"></path> <path d="M685.199 478.158H199.859C193.541 478.148 187.484 475.632 183.017 471.163C178.55 466.695 176.037 460.637 176.029 454.318V145.318C176.037 139.001 178.55 132.944 183.018 128.477C187.485 124.009 193.542 121.496 199.859 121.488H685.199C691.512 121.504 697.561 124.021 702.021 128.487C706.482 132.954 708.991 139.006 708.999 145.318V454.318C708.991 460.632 706.483 466.685 702.022 471.153C697.562 475.621 691.513 478.14 685.199 478.158ZM199.859 125.488C194.597 125.488 189.55 127.577 185.827 131.295C182.103 135.013 180.007 140.056 179.999 145.318V454.318C180.005 459.577 182.095 464.619 185.813 468.338C189.53 472.057 194.571 474.15 199.829 474.158H685.199C690.458 474.15 695.499 472.057 699.216 468.338C702.933 464.619 705.024 459.577 705.029 454.318V145.318C705.021 140.061 702.93 135.022 699.212 131.305C695.495 127.588 690.456 125.496 685.199 125.488H199.859Z" fill="#231F20"></path> <path d="M681.899 149.59H203.149V450.26H681.899V149.59Z" fill="white"></path> <path d="M683.899 452.25H201.149V147.59H683.899V452.25ZM205.149 448.25H679.899V151.59H205.149V448.25Z" fill="#231F20"></path> <path d="M633.45 172.359H259.44C246.174 172.359 235.42 183.114 235.42 196.379V233.009C235.42 246.275 246.174 257.029 259.44 257.029H633.45C646.716 257.029 657.47 246.275 657.47 233.009V196.379C657.47 183.114 646.716 172.359 633.45 172.359Z" fill="white"></path> <path d="M633.439 258.999H259.439C252.544 258.999 245.931 256.26 241.055 251.384C236.179 246.508 233.439 239.895 233.439 232.999V196.379C233.453 189.487 236.196 182.882 241.069 178.009C245.942 173.136 252.548 170.392 259.439 170.379H633.439C640.33 170.395 646.934 173.139 651.807 178.012C656.679 182.884 659.424 189.488 659.439 196.379V232.999C659.426 239.89 656.683 246.496 651.81 251.369C646.937 256.242 640.331 258.986 633.439 258.999ZM259.439 174.329C253.605 174.329 248.009 176.647 243.883 180.773C239.757 184.898 237.439 190.494 237.439 196.329V232.999C237.439 238.834 239.757 244.429 243.883 248.555C248.009 252.681 253.605 254.999 259.439 254.999H633.439C639.274 254.999 644.87 252.681 648.996 248.555C653.122 244.429 655.439 238.834 655.439 232.999V196.379C655.426 190.548 653.104 184.96 648.981 180.837C644.858 176.714 639.27 174.392 633.439 174.379L259.439 174.329Z" fill="black"></path> <path d="M657.47 280.359H388.8V409.689H657.47V280.359Z" fill="white"></path> <path d="M659.47 411.699H386.8V278.359H659.47V411.699ZM390.8 407.699H655.47V282.359H390.8V407.699Z" fill="#231F20"></path> <path d="M388.8 381.47L457.24 301.84L560.47 379.03L604.47 349.45L657.47 383.62V409.7H388.8V381.47Z" fill="#231F20"></path> <path d="M627.271 310.764C628.839 304.461 625 298.081 618.698 296.513C612.395 294.945 606.014 298.783 604.446 305.086C602.878 311.389 606.717 317.769 613.02 319.337C619.322 320.905 625.703 317.067 627.271 310.764Z" fill="#231F20"></path> <path d="M367.62 278.359H276.97V282.359H367.62V278.359Z" fill="#231F20"></path> <path d="M367.62 294.029H276.97V298.029H367.62V294.029Z" fill="#231F20"></path> <path d="M367.62 309.699H276.97V313.699H367.62V309.699Z" fill="#231F20"></path> <path d="M367.62 325.359H276.97V329.359H367.62V325.359Z" fill="#231F20"></path> <path d="M367.62 341.029H276.97V345.029H367.62V341.029Z" fill="#231F20"></path> <path d="M367.62 356.699H276.97V360.699H367.62V356.699Z" fill="#231F20"></path> <path d="M199.449 316.389C199.449 316.389 196.629 325.699 203.149 329.029C209.469 332.259 209.229 334.029 209.469 338.609C209.799 345.029 214.969 350.609 224.469 349.359C233.969 348.109 239.719 318.609 239.719 318.609L199.449 316.389Z" fill="#231F20"></path> <path d="M303.05 480.969L363.3 571.019L425.79 534.859L367.62 431.389L303.05 480.969Z" fill="white"></path> <path d="M362.68 573.688L300.35 480.528L368.23 428.398L428.5 535.608L362.68 573.688ZM305.76 481.418L363.92 568.348L423.08 534.118L367 434.378L305.76 481.418Z" fill="#231F20"></path> <path d="M299 485.469L325 534.37L398.55 486.37C398.55 486.37 383.55 450.26 364.55 422.37C351.97 403.86 337.75 386.57 306.25 380.27C298.47 464.36 299 485.469 299 485.469Z" fill="#35B34A"></path> <path d="M160.47 375.359L120.47 590.609H302.47L324.97 385.859C324.97 385.859 303.97 375.159 257.09 369.359C255.2 376.359 249.22 386.779 228.72 385.609C210.29 384.609 206.81 377.109 205.41 370.989C189.84 370.739 160.47 375.359 160.47 375.359Z" fill="#35B34A"></path> <path d="M314.296 464.761L300.607 587.963L304.583 588.405L318.272 465.203L314.296 464.761Z" fill="#231F20"></path> <path d="M221.47 323.859L211.63 372.199L201 372.999C201 372.999 199.11 392.809 233.34 392.999C259.51 393.129 260.26 371.659 260.26 371.659L248.84 370.499L248.68 323.909L221.47 323.859Z" fill="white"></path> <path d="M233.64 395H233.37C219.46 394.92 209.52 391.69 203.83 385.39C202.246 383.71 201.008 381.734 200.188 379.576C199.368 377.417 198.981 375.118 199.05 372.81L199.21 371.12L209.97 370.36L219.83 321.91H250.71L250.88 368.69L262.36 369.86L262.3 371.73C262.29 371.91 261.17 395 233.64 395ZM203.1 374.86C203.494 377.833 204.812 380.608 206.87 382.79C211.73 388.09 220.87 390.93 233.39 391H233.64C253.11 391 257.22 378.33 258.07 373.45L246.89 372.3L246.72 325.91H223.1L213.28 374.13L203.1 374.86Z" fill="#231F20"></path> <path d="M239.999 333.109C239.999 333.109 260.499 332.609 263.749 325.609C266.999 318.609 244.499 282.359 225.249 287.109C205.999 291.859 190.469 333.109 239.999 333.109Z" fill="white"></path> <path d="M238.22 322.34C235.995 322.34 233.82 321.68 231.97 320.444C230.12 319.208 228.678 317.451 227.826 315.395C226.975 313.339 226.752 311.077 227.186 308.895C227.62 306.713 228.691 304.708 230.265 303.135C231.838 301.562 233.843 300.49 236.025 300.056C238.207 299.622 240.469 299.845 242.525 300.696C244.581 301.548 246.338 302.99 247.574 304.84C248.81 306.69 249.47 308.865 249.47 311.09C249.467 314.073 248.281 316.933 246.172 319.042C244.063 321.151 241.203 322.337 238.22 322.34V322.34ZM238.22 303.84C236.786 303.84 235.384 304.265 234.192 305.062C233 305.858 232.07 306.991 231.522 308.315C230.973 309.64 230.829 311.098 231.109 312.504C231.389 313.911 232.079 315.202 233.093 316.216C234.107 317.23 235.399 317.921 236.805 318.201C238.212 318.48 239.669 318.337 240.994 317.788C242.319 317.239 243.451 316.31 244.248 315.118C245.045 313.926 245.47 312.524 245.47 311.09C245.467 309.168 244.702 307.325 243.343 305.966C241.984 304.607 240.142 303.842 238.22 303.84V303.84Z" fill="#231F20"></path> <path d="M256.72 311.068C254.495 311.068 252.32 310.409 250.47 309.172C248.62 307.936 247.178 306.179 246.326 304.124C245.475 302.068 245.252 299.806 245.686 297.624C246.12 295.441 247.191 293.437 248.765 291.863C250.338 290.29 252.343 289.219 254.525 288.785C256.707 288.35 258.969 288.573 261.025 289.425C263.081 290.276 264.838 291.718 266.074 293.568C267.31 295.418 267.97 297.593 267.97 299.818C267.97 302.802 266.784 305.663 264.675 307.773C262.565 309.883 259.703 311.068 256.72 311.068ZM256.72 292.568C255.286 292.568 253.884 292.994 252.692 293.79C251.5 294.587 250.57 295.719 250.022 297.044C249.473 298.369 249.329 299.826 249.609 301.233C249.889 302.639 250.579 303.931 251.593 304.945C252.607 305.959 253.899 306.649 255.305 306.929C256.712 307.209 258.169 307.065 259.494 306.516C260.819 305.968 261.951 305.039 262.748 303.846C263.545 302.654 263.97 301.252 263.97 299.818C263.967 297.896 263.202 296.054 261.843 294.695C260.484 293.336 258.642 292.571 256.72 292.568Z" fill="#231F20"></path> <path d="M253.06 320.319C252.287 320.318 251.517 320.241 250.76 320.089L251.51 316.159C256.51 317.159 258.42 313.329 258.43 313.299L262.16 314.739C261.335 316.441 260.039 317.871 258.426 318.86C256.814 319.849 254.951 320.355 253.06 320.319V320.319Z" fill="#231F20"></path> <path d="M222 322L226 315.37C226 315.37 219.75 301.88 226 299.63C232.25 297.38 244.58 299.33 248 296.63C250 291.9 248.46 271.9 238.71 273.9C228.96 275.9 231.96 281.9 224.46 281.15C216.96 280.4 210.46 276.4 200.96 285.15C191.46 293.9 195.71 299.4 192.96 303.65C190.21 307.9 185.96 312.15 189.21 318.15C192.46 324.15 202.46 319.4 202.71 322.02C202.96 324.64 220.16 330.02 220.16 330.02L222 322Z" fill="#231F20"></path> <path d="M224.63 316.389C224.63 316.389 214.88 310.509 211.13 317.259C205.06 328.189 221.63 331.529 221.63 331.529" fill="white"></path> <path d="M221.24 333.489C220.84 333.409 211.38 331.489 208.58 325.369C207.3 322.599 207.58 319.55 209.39 316.29C209.903 315.314 210.612 314.456 211.472 313.767C212.333 313.079 213.326 312.576 214.39 312.29C219.46 310.93 225.39 314.49 225.69 314.64L223.62 318.069C222.3 317.279 218.25 315.39 215.41 316.16C214.875 316.298 214.374 316.548 213.942 316.892C213.51 317.237 213.154 317.669 212.9 318.16C211.73 320.27 211.51 322.059 212.23 323.619C213.84 327.129 219.87 329.049 222.05 329.499L221.24 333.489Z" fill="#231F20"></path> <path d="M239.999 335.108L239.899 331.108C247.339 330.928 259.899 329.038 261.899 324.768C263.359 321.618 255.399 304.438 242.479 294.398C238.249 291.108 231.909 287.518 225.699 289.048L224.699 285.168C230.849 283.648 237.829 285.748 244.889 291.238C257.069 300.698 268.429 320.118 265.489 326.458C261.859 334.348 242.239 335.058 239.999 335.108Z" fill="#231F20"></path> <path d="M431.171 559.042C433.964 539.293 420.218 521.019 400.469 518.227C380.72 515.434 362.446 529.18 359.653 548.929C356.861 568.678 370.606 586.952 390.355 589.744C410.105 592.537 428.378 578.791 431.171 559.042Z" fill="white"></path> <path d="M394 589.999C384.52 590.01 375.376 586.49 368.351 580.126C361.325 573.762 356.922 565.009 355.998 555.575C355.074 546.141 357.697 536.7 363.355 529.095C369.013 521.489 377.301 516.263 386.602 514.435C395.904 512.607 405.553 514.308 413.668 519.207C421.783 524.106 427.783 531.852 430.498 540.934C433.214 550.017 432.449 559.784 428.355 568.334C424.26 576.883 417.128 583.602 408.35 587.179C403.794 589.039 398.92 589.997 394 589.999V589.999ZM394 517.739C386.69 517.741 379.574 520.092 373.7 524.443C367.827 528.795 363.506 534.917 361.375 541.909C359.243 548.902 359.413 556.394 361.861 563.282C364.308 570.17 368.903 576.09 374.968 580.17C381.033 584.25 388.248 586.274 395.551 585.944C402.853 585.614 409.857 582.948 415.53 578.338C421.202 573.728 425.245 567.418 427.061 560.338C428.878 553.257 428.373 545.78 425.62 539.009C423.088 532.692 418.708 527.286 413.054 523.498C407.4 519.71 400.735 517.717 393.93 517.779L394 517.739Z" fill="#231F20"></path> <path d="M433.47 395.359L362.38 534.379L426.94 566.579L483.97 417.359L433.47 395.359Z" fill="white"></path> <path d="M503.36 355.79L495.22 347.5L532.75 310.64C533.837 309.574 535.302 308.983 536.824 308.996C538.346 309.009 539.801 309.626 540.87 310.71L540.96 310.8C542.027 311.889 542.618 313.357 542.603 314.881C542.588 316.406 541.968 317.862 540.88 318.93L503.36 355.79Z" fill="white"></path> <path d="M503.33 358.609L492.39 347.469L531.34 309.209C532.067 308.49 532.929 307.922 533.876 307.537C534.824 307.153 535.838 306.96 536.86 306.969C537.883 306.978 538.893 307.19 539.834 307.592C540.774 307.993 541.626 308.577 542.34 309.309L542.43 309.399C543.865 310.867 544.66 312.844 544.64 314.897C544.619 316.95 543.785 318.911 542.32 320.349L503.33 358.609ZM498.05 347.529L503.38 352.959L539.48 317.499C540.182 316.796 540.576 315.843 540.576 314.849C540.576 313.855 540.182 312.902 539.48 312.199L539.39 312.109C538.676 311.431 537.729 311.053 536.745 311.053C535.76 311.053 534.813 311.431 534.1 312.109L498.05 347.529Z" fill="#231F20"></path> <path d="M488.27 354.31L480.13 346.03L517.65 309.17C518.739 308.104 520.206 307.512 521.729 307.526C523.253 307.539 524.71 308.155 525.78 309.24L525.86 309.33C526.928 310.417 527.521 311.885 527.508 313.409C527.495 314.934 526.877 316.391 525.79 317.46L488.27 354.31Z" fill="white"></path> <path d="M488.24 357.138L477.3 345.998L516.3 307.738C517.027 307.019 517.889 306.451 518.836 306.067C519.784 305.682 520.798 305.489 521.821 305.498C522.843 305.508 523.854 305.719 524.794 306.121C525.734 306.522 526.586 307.106 527.3 307.838L527.38 307.928C528.1 308.655 528.669 309.517 529.055 310.464C529.44 311.412 529.633 312.426 529.624 313.449C529.615 314.472 529.403 315.483 529 316.423C528.598 317.364 528.013 318.215 527.28 318.928L488.24 357.138ZM482.96 346.048L488.29 351.488L524.39 316.028C525.092 315.325 525.486 314.372 525.486 313.378C525.486 312.385 525.092 311.431 524.39 310.728L524.3 310.638C523.584 309.96 522.636 309.581 521.65 309.581C520.664 309.581 519.715 309.96 519 310.638L482.96 346.048Z" fill="#231F20"></path> <path d="M506.05 369.4L497.91 361.12L535.44 324.26C536.528 323.191 537.995 322.598 539.52 322.612C541.044 322.625 542.501 323.243 543.57 324.33L543.65 324.41C544.717 325.499 545.308 326.967 545.293 328.491C545.278 330.016 544.659 331.472 543.57 332.54L506.05 369.4Z" fill="white"></path> <path d="M506 372.229L495.06 361.089L534.06 322.829C534.786 322.108 535.648 321.539 536.595 321.154C537.543 320.769 538.557 320.575 539.58 320.584C540.603 320.594 541.614 320.806 542.555 321.208C543.495 321.61 544.347 322.195 545.06 322.929L545.13 322.999C545.849 323.725 546.417 324.586 546.803 325.533C547.188 326.48 547.383 327.493 547.375 328.515C547.368 329.537 547.159 330.548 546.76 331.489C546.36 332.43 545.779 333.283 545.05 333.999L506 372.229ZM500.719 361.139L506.06 366.569L542.15 331.119C542.852 330.414 543.247 329.459 543.247 328.464C543.247 327.468 542.852 326.514 542.15 325.809L542.079 325.749C541.376 325.051 540.429 324.653 539.439 324.64C538.448 324.627 537.491 324.999 536.77 325.679L500.719 361.139Z" fill="#231F20"></path> <path d="M508.18 383.62L500.04 375.33L537.56 338.47C538.649 337.402 540.117 336.811 541.642 336.826C543.166 336.841 544.622 337.461 545.69 338.55L545.77 338.63C546.3 339.168 546.719 339.805 547.003 340.505C547.286 341.205 547.429 341.954 547.422 342.709C547.416 343.465 547.261 344.211 546.965 344.906C546.669 345.601 546.239 346.231 545.7 346.76L508.18 383.62Z" fill="white"></path> <path d="M508.15 386.449L497.21 375.309L536.21 337.049C536.937 336.33 537.799 335.762 538.747 335.377C539.694 334.993 540.708 334.8 541.731 334.809C542.753 334.818 543.764 335.03 544.704 335.431C545.645 335.833 546.496 336.417 547.21 337.149L547.29 337.219C548.008 337.947 548.575 338.809 548.959 339.756C549.342 340.704 549.535 341.718 549.526 342.74C549.517 343.762 549.305 344.772 548.905 345.712C548.504 346.653 547.921 347.505 547.19 348.219L508.15 386.449ZM502.87 375.359L508.2 380.789L544.3 345.329C545.002 344.626 545.397 343.673 545.397 342.679C545.397 341.685 545.002 340.732 544.3 340.029L544.22 339.949C543.506 339.268 542.557 338.888 541.57 338.888C540.583 338.888 539.634 339.268 538.92 339.949L502.87 375.359Z" fill="#231F20"></path> <path d="M484.89 341C484.89 341 443.889 362.11 432.689 398.86L481.829 422.94C481.829 422.94 507.479 404.34 522.329 369.72C491.399 345.93 484.89 341 484.89 341Z" fill="white"></path> <path d="M477.12 391.559L473.66 389.559C478.04 381.949 485.27 375.399 494.55 370.559L496.39 374.109C487.79 378.599 481.13 384.619 477.12 391.559Z" fill="#231F20"></path> <path d="M483 424.559L480.64 421.329C480.9 421.139 506.36 402.329 520.8 368.609L524.48 370.189C509.59 404.919 484.09 423.779 483 424.559Z" fill="#231F20"></path> <path d="M434.609 399.449L430.779 398.279C442.129 361.149 483.029 339.689 484.779 338.789L486.609 342.349C486.189 342.559 445.449 363.999 434.609 399.449Z" fill="#231F20"></path> <path d="M432.47 403.699C432.47 403.699 432.8 357.359 457.47 348.359H501.8C501.8 348.359 504.14 362.859 473.13 362.699C473.13 377.029 466.8 400.699 457.13 413.029" fill="white"></path> <path d="M458.71 414.259L455.56 411.799C464.88 399.909 471.13 376.799 471.13 362.699V360.699H473.13C488.69 360.769 495.13 357.099 497.82 353.999C498.736 352.959 499.379 351.708 499.69 350.359H457.82C435.04 359.089 434.46 403.259 434.46 403.709H430.46C430.46 401.709 431.1 355.879 456.77 346.509L457.1 346.389H503.49L503.76 348.069C503.895 349.618 503.707 351.179 503.208 352.653C502.709 354.126 501.909 355.48 500.86 356.629C496.42 361.809 487.76 364.529 475.09 364.719C474.55 379.579 468.1 402.279 458.71 414.259Z" fill="#231F20"></path> <path d="M480.896 420.526L424.981 565.732L428.714 567.17L484.628 421.963L480.896 420.526Z" fill="#231F20"></path> <path d="M431.611 394.347L360.56 533.373L364.121 535.193L435.173 396.167L431.611 394.347Z" fill="#231F20"></path> <path d="M61.4694 483.359L16.5693 574.509L95.8193 602.569L135.489 504.359L61.4694 483.359Z" fill="white"></path> <path d="M96.9994 605.099L13.8193 575.649L60.4493 480.979L138.219 503.049L96.9994 605.099ZM19.3994 573.379L94.7194 600.049L132.849 505.679L62.5594 485.739L19.3994 573.379Z" fill="black"></path> <path d="M164.47 464.859L127.47 525.359L39.9697 515.359C39.9697 515.359 65.7197 468.359 86.9697 436.109C108.22 403.859 138.75 377.539 162.22 375.109C164 442.109 164.47 464.859 164.47 464.859Z" fill="#35B34A"></path> <path d="M155.927 465.691L119.049 525.973L122.449 528.053L159.327 467.771L155.927 465.691Z" fill="#231F20"></path> <path d="M94.0814 606.621C104.329 585.787 95.7461 560.59 74.9117 550.343C54.0773 540.095 28.8807 548.678 18.6334 569.512C8.38617 590.347 16.9686 615.543 37.803 625.791C58.6374 636.038 83.8341 627.455 94.0814 606.621Z" fill="white"></path> <path d="M56.3694 632.12C45.4191 632.131 34.8574 628.063 26.7427 620.711C18.628 613.358 13.5419 603.247 12.476 592.349C11.41 581.451 14.4405 570.546 20.9767 561.761C27.5129 552.975 37.0865 546.938 47.8313 544.827C58.5761 542.716 69.7221 544.681 79.0967 550.34C88.4713 555.999 95.4026 564.946 98.5398 575.437C101.677 585.928 100.795 597.212 96.0659 607.088C91.3368 616.965 83.0994 624.726 72.9594 628.86C67.6928 631.011 62.0584 632.119 56.3694 632.12V632.12ZM56.3694 548.01C47.7898 548.009 39.4367 550.763 32.5403 555.867C25.6438 560.971 20.5686 568.154 18.062 576.359C15.5555 584.565 15.7501 593.358 18.6173 601.444C21.4845 609.531 26.8726 616.482 33.9882 621.276C41.1037 626.069 49.5705 628.451 58.1416 628.071C66.7127 627.69 74.9351 624.567 81.5977 619.162C88.2603 613.756 93.0108 606.354 95.1499 598.045C97.289 589.737 96.7034 580.961 93.4794 573.01C90.5213 565.59 85.395 559.235 78.7694 554.773C72.1439 550.311 64.327 547.951 56.3394 548L56.3694 548.01Z" fill="black"></path> <path d="M248.47 533.359L225.88 485.469L40.5098 549.119L56.0897 588.059L71.7397 627.199L248.47 533.359Z" fill="white"></path> <path d="M240.27 537.709C240.27 537.709 243.27 533.859 246.47 539.109C249.67 544.359 257.72 557.549 263.72 556.329C269.72 555.109 271.47 551.329 271.97 549.109C275.22 550.859 278.22 551.109 280.72 549.859C283.22 548.609 284.22 544.019 284.22 544.019C284.22 544.019 287.47 547.159 290.72 546.019C292.854 545.325 294.787 544.12 296.35 542.509L318.93 573.849C319.636 574.828 320.67 575.522 321.844 575.805C323.019 576.087 324.255 575.94 325.33 575.389L325.42 575.339C326.033 575.021 326.574 574.581 327.01 574.046C327.446 573.51 327.768 572.891 327.955 572.227C328.143 571.563 328.192 570.867 328.1 570.182C328.008 569.498 327.776 568.84 327.42 568.249L303.15 527.899C297.07 515.519 284.32 489.569 262.94 482.999C242.37 476.669 217.51 488.339 217.51 488.339" fill="white"></path> <path d="M322.999 577.929C321.887 577.929 320.791 577.664 319.801 577.157C318.812 576.649 317.958 575.912 317.309 575.009L295.999 545.469C294.584 546.509 293.02 547.328 291.359 547.899C290.348 548.213 289.281 548.313 288.229 548.19C287.177 548.068 286.162 547.727 285.249 547.189C284.576 549.05 283.284 550.625 281.589 551.649C280.271 552.279 278.835 552.621 277.375 552.654C275.914 552.687 274.464 552.409 273.119 551.839C271.949 554.329 269.449 557.199 264.119 558.289C257.759 559.589 251.179 550.519 244.999 540.529L244.779 540.169C243.969 538.869 243.269 538.379 242.889 538.349C242.497 538.427 242.143 538.639 241.889 538.949L238.729 536.499C239.248 535.83 239.914 535.289 240.675 534.918C241.436 534.547 242.273 534.356 243.119 534.359C245.039 534.449 246.749 535.699 248.219 538.059L248.439 538.419C255.359 549.609 260.389 554.989 263.369 554.369C268.069 553.419 269.599 550.749 270.059 548.679L270.639 546.099L272.959 547.349C275.629 548.789 277.959 549.029 279.869 548.069C280.989 547.509 281.989 545.069 282.309 543.589L283.079 540.089L285.659 542.579C285.659 542.579 288.109 544.839 290.099 544.129C291.919 543.527 293.569 542.499 294.909 541.129L296.569 539.279L320.569 572.639C320.989 573.24 321.615 573.667 322.328 573.838C323.041 574.009 323.792 573.913 324.439 573.569C324.829 573.38 325.174 573.112 325.453 572.781C325.732 572.45 325.939 572.064 326.059 571.649C326.177 571.247 326.209 570.825 326.154 570.41C326.099 569.995 325.958 569.596 325.739 569.239L301.399 528.739C295.399 516.549 282.949 491.189 262.399 484.869C242.799 478.869 218.659 489.999 218.399 490.109L216.699 486.489C217.699 485.999 242.499 474.569 263.569 481.039C285.729 487.859 298.699 514.179 304.949 526.899L329.169 567.179C329.674 568.004 330.002 568.925 330.132 569.883C330.263 570.841 330.194 571.816 329.929 572.747C329.664 573.677 329.209 574.542 328.593 575.288C327.977 576.033 327.213 576.643 326.349 577.079C325.316 577.624 324.168 577.916 322.999 577.929Z" fill="#231F20"></path> <path d="M225.268 483.514L39.9004 547.16L41.1994 550.943L226.567 487.297L225.268 483.514Z" fill="#231F20"></path> <path d="M247.545 531.484L70.8271 625.328L72.7032 628.861L249.421 535.017L247.545 531.484Z" fill="#231F20"></path> <path d="M183.432 509.791L170.667 515.541L192.48 563.965L205.245 558.215L183.432 509.791Z" fill="#231F20"></path> <path d="M176.08 493.753L161.317 499.972C157.891 501.414 156.284 505.361 157.727 508.786L165.109 526.315C166.552 529.74 170.499 531.348 173.924 529.905L188.688 523.687C192.113 522.244 193.721 518.298 192.278 514.872L184.895 497.343C183.452 493.918 179.506 492.311 176.08 493.753Z" fill="#231F20"></path> <path d="M659.34 121.51C653.65 116.63 648.266 111.403 643.22 105.86C626.22 87.7896 620.47 71.3596 596.13 61.3596C571.79 51.3596 538.13 77.6996 538.13 77.6996V121.51H659.34Z" fill="#35B34A"></path> <path d="M377.18 129.43C377.18 129.43 362.47 141.61 355.72 157.61C348.97 173.61 351.22 189.61 352.97 196.11C354.72 202.61 357.22 210.36 360.47 209.11C361.351 214.257 363.404 219.132 366.47 223.36C368.97 226.61 371.47 225.36 371.47 225.36C371.47 225.36 375.97 239.36 382.97 237.36C387.97 235.61 384.72 227.61 382.97 216.86C381.22 206.11 381.97 204.61 381.97 204.61C381.97 204.61 390.22 185.38 393.72 183.5C392.47 193.11 389.97 219.61 403.97 216.61C404.72 208.11 406.72 193.11 408.72 186.36C410.72 179.61 419.22 164.36 418.47 149.11" fill="white"></path> <path d="M381.53 239.57C375.44 239.57 371.53 231.3 370.14 227.57C369.092 227.506 368.073 227.202 367.161 226.682C366.249 226.162 365.469 225.439 364.88 224.57C361.945 220.559 359.884 215.977 358.83 211.12C358.529 211.041 358.238 210.93 357.96 210.79C355.4 209.49 353.39 205.38 351.04 196.62C350.13 193.25 346.04 175.49 353.87 156.83C360.73 140.56 375.29 128.39 375.87 127.83L378.42 130.91C378.28 131.03 363.99 142.99 357.52 158.33C350.15 175.79 354.01 192.38 354.86 195.53C357.63 205.84 359.32 207.06 359.77 207.19L362.04 206.32L362.4 208.71C363.226 213.536 365.145 218.109 368.01 222.08C369.42 223.91 370.52 223.52 370.53 223.51L372.61 222.51L373.33 224.73C374.33 227.87 378.16 236.55 382.33 235.44C384.33 234.66 383.68 230.83 382.33 224.17C381.89 222.06 381.4 219.67 380.99 217.17C379.79 209.8 379.5 205.31 380.13 203.82C382.13 199.15 388.95 183.82 392.77 181.72L396.2 179.88L395.7 183.74C393.7 199.19 394.7 210.06 398.56 213.59C399.034 214.034 399.596 214.374 400.208 214.59C400.821 214.805 401.472 214.89 402.12 214.84C402.96 206.16 404.84 192.4 406.8 185.78C407.32 184.02 408.24 181.78 409.3 179.16C412.37 171.63 417.01 160.24 416.47 149.16L420.47 148.96C421.06 160.89 416.22 172.77 413.01 180.63C412.01 183.14 411.11 185.31 410.64 186.88C408.64 193.57 406.64 208.65 405.97 216.74L405.84 218.21L404.4 218.52C402.922 218.922 401.368 218.95 399.877 218.601C398.386 218.251 397.005 217.536 395.86 216.52C390.86 211.89 390.22 200.91 390.99 190.52C388.77 194.52 386.08 200.09 383.87 205.24C383.81 205.65 383.57 208.06 384.95 216.51C385.34 218.93 385.81 221.18 386.26 223.34C387.81 230.83 389.14 237.34 383.64 239.22H383.53C382.882 239.427 382.21 239.545 381.53 239.57V239.57Z" fill="#231F20"></path> <path d="M369.93 226.999C367.958 221.434 366.551 215.685 365.73 209.839C364.73 201.229 371.29 182.009 371.58 181.199L375.36 182.509C375.29 182.699 368.77 201.669 369.7 209.359C370.494 214.901 371.834 220.351 373.7 225.629L369.93 226.999Z" fill="#231F20"></path> <path d="M358.53 209.6C357.315 204.708 356.473 199.73 356.01 194.71C355.48 187.6 359.67 176.38 359.84 175.91L363.59 177.32C363.59 177.43 359.53 188.18 360 194.41C360.458 199.199 361.263 203.948 362.41 208.62L358.53 209.6Z" fill="#231F20"></path> <path d="M539.939 121.349C539.939 121.349 506.939 124.219 476.469 134.109C445.999 143.999 419.189 162.219 419.189 162.219C419.189 162.219 394.939 135.969 372.939 130.469C386.689 117.559 420.599 101.209 467.189 91.0992C509.809 81.8492 529.49 79.9492 538.13 77.6992C540.56 118.349 539.939 121.349 539.939 121.349Z" fill="#35B34A"></path> <path d="M503.82 220.699C503.82 220.699 490.63 228.029 483.3 231.859C475.97 235.689 478.63 238.699 470.47 245.699C462.31 252.699 453.3 261.529 453.3 261.529C453.3 261.529 456.8 270.699 466.47 264.859C476.14 259.019 480.13 254.859 480.13 254.859C480.13 254.859 473.13 270.359 468.3 280.359C463.47 290.359 449.97 314.529 450.8 316.859C452.13 319.859 459.51 322.859 467.15 310.859C474.79 298.859 477.29 295.359 477.29 295.359C479.029 295.805 480.845 295.857 482.606 295.511C484.368 295.165 486.029 294.43 487.47 293.359C488.97 294.859 500.13 296.359 509.13 291.699C518.13 287.039 524.13 281.029 529.47 273.529C534.81 266.029 541.3 255.029 541.3 255.029L503.82 220.699Z" fill="white"></path> <path d="M455.7 321.549C454.327 321.608 452.965 321.275 451.773 320.59C450.582 319.905 449.61 318.895 448.97 317.679V317.539C448.24 315.539 450.17 311.099 460.46 291.389C462.85 286.809 465.1 282.489 466.55 279.489C469.14 274.129 472.38 267.118 474.81 261.818C472.81 263.208 470.46 264.818 467.55 266.578C465.462 267.942 463.042 268.713 460.55 268.809C454.05 268.809 451.55 262.509 451.47 262.239L451 260.999L451.94 260.078C452.03 259.988 461.08 251.079 469.2 244.159C471.662 242.145 473.728 239.689 475.29 236.919C476.856 233.922 479.355 231.517 482.41 230.068C489.64 226.288 502.76 218.999 502.89 218.929L504.15 218.229L543.89 254.629L543.06 256.029C543 256.139 536.46 267.189 531.14 274.669C525 283.289 518.51 289.088 510.14 293.448C505.557 295.696 500.515 296.85 495.41 296.818V296.818C494.41 296.818 490.23 296.759 487.63 295.679C485.398 296.996 482.852 297.687 480.26 297.679C479.591 297.68 478.923 297.633 478.26 297.539C477.05 299.319 474.26 303.539 468.92 311.879C463.78 319.879 458.9 321.549 455.7 321.549ZM452.8 316.339C453.164 316.742 453.612 317.06 454.114 317.27C454.616 317.479 455.157 317.574 455.7 317.549C457.5 317.549 461.16 316.549 465.47 309.789C473.05 297.879 475.56 294.348 475.66 294.198L476.52 292.999L477.92 293.469C478.655 293.657 479.412 293.748 480.17 293.739C482.375 293.729 484.523 293.03 486.31 291.739L487.69 290.739L488.82 291.879C489.29 292.159 491.53 292.828 495.32 292.828C499.785 292.863 504.196 291.864 508.21 289.909C516.14 285.799 522.01 280.549 527.84 272.359C531.95 266.569 536.84 258.579 538.75 255.359L503.53 223.099C500.05 225.029 490.17 230.489 484.23 233.599C481.824 234.701 479.866 236.592 478.68 238.958C476.897 242.094 474.555 244.876 471.77 247.169C465.37 252.659 458.37 259.359 455.77 261.889C456.252 262.733 456.941 263.44 457.772 263.944C458.603 264.448 459.549 264.732 460.52 264.769C462.28 264.668 463.979 264.094 465.44 263.109C474.71 257.519 478.66 253.478 478.7 253.438L486.7 245.159L481.97 255.649C481.9 255.799 474.91 271.278 470.12 281.188C468.65 284.188 466.38 288.588 463.97 293.188C459.71 301.358 453.38 313.489 452.8 316.339Z" fill="#231F20"></path> <path d="M485.499 275.517L475.488 294.352L479.02 296.229L489.031 277.394L485.499 275.517Z" fill="#231F20"></path> <path d="M495.22 288.359C495.22 288.359 489.63 290.859 487.47 293.359Z" fill="white"></path> <path d="M489 294.669L486 292.049C488.39 289.299 493.84 286.809 494.45 286.539L496.09 290.189C494.59 290.839 490.51 292.899 489 294.669Z" fill="#231F20"></path> <path d="M497.689 221.72C497.689 221.72 516.939 238.38 541.939 257.85C648.059 201.1 635.8 101 621.8 84.6999C607.8 68.3999 599.47 63.3398 587.8 66.3498C576.13 69.3598 576.13 95.3498 576.8 112.35C577.47 129.35 570.06 159.59 550.27 179.9C531.85 198.81 497.689 221.72 497.689 221.72Z" fill="#35B34A"></path> <path d="M532.39 29.3797C510.33 27.1197 504.97 46.3797 504.97 46.3797C504.97 46.3797 503.22 58.6297 510.22 63.8797C510.52 70.0497 511.05 76.2997 511.05 76.2997L516.88 73.0497C516.88 73.0497 527.17 80.9797 538.13 71.3797L548.47 86.1297C548.47 86.1297 552.72 88.1297 555.47 83.3797C558.22 78.6297 554.22 61.8797 554.22 61.8797C554.22 61.8797 554 31.5797 532.39 29.3797Z" fill="white"></path> <path d="M550.579 88.5295C549.548 88.5372 548.526 88.3294 547.579 87.9194L547.099 87.6995L537.689 74.2595C534.477 76.7189 530.554 78.0698 526.509 78.1094C523.077 78.0756 519.716 77.13 516.769 75.3694L509.289 79.5295L509.029 76.4495C509.029 76.3895 508.549 70.6794 508.229 64.8494C501.229 58.7194 502.879 46.6095 502.959 46.0795V45.8295C502.959 45.6395 508.389 27.1895 528.799 27.1895C530.042 27.1926 531.284 27.2594 532.519 27.3895C554.519 29.6295 556.029 58.6394 556.129 61.5994C556.919 64.9594 560.049 79.2994 557.129 84.3694C556.519 85.5928 555.586 86.6265 554.432 87.3595C553.278 88.0925 551.946 88.497 550.579 88.5295V88.5295ZM549.729 84.4294C550.008 84.4939 550.293 84.5275 550.579 84.5295C551.256 84.4987 551.911 84.2791 552.469 83.8956C553.028 83.5121 553.467 82.98 553.739 82.3594C555.359 79.5594 553.849 68.9594 552.269 62.3594V62.1395V61.9094C552.269 61.6294 551.749 33.3895 532.269 31.3895C531.139 31.2795 530.029 31.2194 528.959 31.2194C512.369 31.2194 507.469 45.3394 506.959 46.8094C506.809 48.0794 505.849 58.0894 511.449 62.2894L512.199 62.8594V63.7894C512.369 67.1994 512.609 70.6594 512.789 73.0394L517.049 70.6694L518.049 71.4794C520.86 73.4542 524.276 74.3771 527.698 74.0864C531.121 73.7957 534.332 72.3099 536.769 69.8895L538.439 68.4194L549.729 84.4294Z" fill="#231F20"></path> <path d="M514.999 24.6087C514.199 24.9387 498.079 31.8587 498.259 45.2787C498.439 58.6987 519.759 62.5287 533.759 48.4487C533.679 45.1987 536.319 41.2587 539.929 41.7787C545.179 42.5287 547.929 48.1987 540.339 53.3587C542.719 54.4987 546.829 58.5487 547.929 60.1087C550.929 64.3587 555.179 72.8587 570.179 68.1087C585.179 63.3587 599.499 55.2387 618.709 77.2987C637.919 99.3587 641.909 111.359 656.549 121.739C665.299 121.739 674.089 121.739 679.929 121.799C692.789 121.879 695.089 123.739 695.089 123.739C695.089 123.739 685.429 117.279 681.339 111.949C677.399 106.799 674.679 104.359 667.679 102.859C660.679 101.359 651.949 99.4287 652.239 84.1787C652.549 67.9087 651.929 58.8587 638.679 57.1087C625.429 55.3587 612.679 60.6087 609.929 55.1087C607.179 49.6087 622.179 33.6087 611.929 22.3587C601.679 11.1087 584.679 10.3587 567.179 14.1087C549.679 17.8587 541.929 25.3587 534.179 23.6087C526.429 21.8587 520.919 22.1087 514.999 24.6087Z" fill="#231F20"></path> <path d="M525.689 77.9993L524.569 74.1592C525.04 73.9684 525.468 73.6838 525.825 73.3228C526.183 72.9618 526.463 72.532 526.649 72.0593C526.979 71.2934 527.131 70.4631 527.094 69.6302C527.058 68.7974 526.834 67.9836 526.439 67.2493L530.049 65.5293C530.689 66.789 531.043 68.1742 531.086 69.5864C531.13 70.9985 530.861 72.4028 530.299 73.6993C529.881 74.7024 529.253 75.6047 528.458 76.3462C527.663 77.0877 526.719 77.6512 525.689 77.9993V77.9993Z" fill="#231F20"></path> <path d="M525.18 24.1093C525.18 24.1093 533.72 15.1093 532.18 6.35927C530.64 -2.39073 522.68 0.85927 514.93 4.10927C507.18 7.35927 509.18 19.1093 520.68 24.1093H525.18Z" fill="#231F20"></path> <path d="M519.88 62.0001C519.88 62.3308 519.782 62.6541 519.598 62.9289C519.414 63.2038 519.153 63.4178 518.847 63.5439C518.541 63.67 518.205 63.7025 517.88 63.6372C517.556 63.572 517.259 63.412 517.026 63.1774C516.792 62.9428 516.634 62.6443 516.571 62.3197C516.508 61.9951 516.542 61.659 516.67 61.354C516.798 61.0491 517.013 60.789 517.289 60.6067C517.565 60.4244 517.889 60.3281 518.22 60.3301C518.439 60.3301 518.655 60.3734 518.858 60.4574C519.06 60.5415 519.243 60.6646 519.397 60.8199C519.552 60.9751 519.674 61.1592 519.756 61.3618C519.839 61.5643 519.881 61.7813 519.88 62.0001V62.0001Z" fill="#231F20"></path> <path d="M649.329 590.609C654.399 582.709 660.469 572.389 660.469 561.099C660.469 560.769 660.469 560.439 660.469 560.099C660.399 555.879 658.672 551.855 655.662 548.896C652.653 545.937 648.6 544.279 644.379 544.279H610.239C606.018 544.279 601.966 545.937 598.956 548.896C595.947 551.855 594.22 555.879 594.149 560.099C594.149 560.439 594.149 560.769 594.149 561.099C594.149 572.389 600.219 582.709 605.289 590.609H649.329Z" fill="#231F20"></path> <path d="M627.47 440.299H627.13C622.621 440.299 618.297 442.09 615.109 445.278C611.921 448.466 610.13 452.79 610.13 457.299V549.119H644.47V457.299C644.47 452.79 642.679 448.466 639.491 445.278C636.303 442.09 631.979 440.299 627.47 440.299Z" fill="white"></path> <path d="M646.47 551.119H608.13V457.289C608.13 452.25 610.132 447.417 613.695 443.854C617.258 440.291 622.091 438.289 627.13 438.289H627.47C632.509 438.289 637.342 440.291 640.905 443.854C644.468 447.417 646.47 452.25 646.47 457.289V551.119ZM612.13 547.119H642.47V457.289C642.47 453.311 640.89 449.495 638.077 446.682C635.263 443.869 631.448 442.289 627.47 442.289H627.13C623.152 442.289 619.336 443.869 616.523 446.682C613.71 449.495 612.13 453.311 612.13 457.289V547.119Z" fill="#231F20"></path> <path d="M634.8 440.299H630.8V549.119H634.8V440.299Z" fill="#231F20"></path> <path d="M625.8 440.299H621.8V549.119H625.8V440.299Z" fill="#231F20"></path> <path d="M648.775 488.747L638.106 492.766L639.516 496.509L650.185 492.49L648.775 488.747Z" fill="#231F20"></path> <path d="M598.099 484.727L596.321 488.311L609.319 494.76L611.097 491.177L598.099 484.727Z" fill="#231F20"></path> <path d="M656.112 446.542L642.775 459.291L645.539 462.182L658.876 449.433L656.112 446.542Z" fill="#231F20"></path> <path d="M610.691 432.541L607.533 434.996L621.529 452.994L624.687 450.539L610.691 432.541Z" fill="#231F20"></path> <path d="M649.792 511.497L631.795 522.162L633.834 525.603L651.832 514.938L649.792 511.497Z" fill="#231F20"></path> <path d="M600.268 526.636L598.863 530.381L609.528 534.381L610.933 530.636L600.268 526.636Z" fill="#231F20"></path> <path d="M600.506 458.973L598.522 462.447L608.154 467.945L610.137 464.471L600.506 458.973Z" fill="#231F20"></path> <path d="M704.129 588.469H157.149V595.469H704.129V588.469Z" fill="#231F20"></path> <path d="M536.6 430.219L478.13 575.869H494.78L553.23 430.219H536.6Z" fill="#231F20"></path> <path d="M493.97 580.01H283.47V591.97H493.97V580.01Z" fill="#231F20"></path> </svg> 