<?xml version="1.0" encoding="UTF-8"?> <svg xmlns="http://www.w3.org/2000/svg" width="688" height="558" viewBox="0 0 688 558" fill="none"> <path d="M108.636 551.937C148.049 549.492 178.017 515.56 175.572 476.147C173.127 436.734 139.194 406.766 99.7817 409.211C60.3692 411.657 30.4011 445.589 32.8462 485.001C35.2913 524.414 69.2237 554.382 108.636 551.937Z" fill="#35B34A"></path> <path d="M151.41 534.251L57 426.831C57 426.831 159.61 220.061 282.7 207.711V409.001L151.41 534.251Z" fill="#35B34A"></path> <path d="M264.72 210.891C264.72 210.891 294.15 203.061 323.52 200.561C323.21 207.001 328.95 224.931 357.89 223.131C386.05 221.371 386.55 202.541 386.55 202.541C386.55 202.541 462.05 210.541 505.42 224.211C505.42 492.581 509.72 493.711 509.72 493.711H264.72V210.891Z" fill="#35B34A"></path> <path d="M549.92 504.671L652.46 482.001C652.46 482.001 633.67 269.721 502.05 223.211C502.05 260.701 505.62 349.571 505.62 349.571L549.92 504.671Z" fill="#35B34A"></path> <path d="M161.72 247.371C161.72 246.371 169.87 201.371 169.87 201.371C169.87 201.371 189.05 158.371 221.05 146.371C256.38 134.041 270.72 126.711 270.72 126.711C270.72 126.711 277.11 113.501 251.38 105.371C219.72 95.3707 183.72 82.3707 167.13 89.8407C151.62 96.8407 102.38 139.041 80.3799 229.041C157.38 246.001 161.72 247.371 161.72 247.371Z" fill="white"></path> <path d="M163.719 250.079L161.139 249.289C160.829 249.199 154.309 247.409 79.9492 230.989L77.9492 230.549L78.4392 228.549C90.4392 179.629 110.139 146.379 124.589 127.099C140.459 105.919 156.979 92.1994 166.309 87.9994C169.879 86.3994 174.309 85.6094 179.709 85.6094C196.359 85.6094 219.709 93.1094 242.269 100.349C245.536 101.403 248.776 102.436 251.989 103.449C262.869 106.889 269.709 111.699 272.319 117.739C273.015 119.279 273.392 120.944 273.426 122.634C273.461 124.323 273.152 126.002 272.519 127.569L272.219 128.169L271.629 128.479C271.039 128.779 256.769 136.009 221.709 148.249C192.049 159.369 173.299 198.709 171.789 201.969C168.639 219.369 163.949 245.489 163.719 247.449V250.079ZM82.8192 227.529C137.909 239.699 154.909 243.649 160.079 244.899C161.229 237.999 164.809 218.079 167.899 201.019V200.779L167.999 200.559C168.799 198.769 187.899 156.649 220.309 144.499C250.909 133.819 265.829 126.839 269.079 125.259C269.616 123.26 269.432 121.136 268.559 119.259C267.069 115.909 262.769 111.109 250.739 107.259C247.529 106.259 244.279 105.199 241.009 104.149C218.729 96.9994 195.689 89.5994 179.669 89.5994C175.653 89.4439 171.648 90.125 167.909 91.5994C155.709 97.1694 105.699 136.299 82.8192 227.529Z" fill="#231F20"></path> <path d="M168.05 207.711C168.05 207.711 196.72 192.371 207.05 181.371C239.72 165.711 243.72 162.711 243.72 162.711C243.72 162.711 246.05 149.711 229.72 149.711C219.922 149.706 210.244 151.868 201.38 156.041C201.38 156.041 158.38 150.711 145.72 179.711" fill="white"></path> <path d="M169 209.47L167.12 205.94C167.4 205.79 195.61 190.64 205.6 180L205.86 179.73L206.19 179.57C231.83 167.28 239.69 162.84 241.83 161.57C241.979 159.288 241.289 157.03 239.89 155.22C237.89 152.9 234.51 151.73 229.73 151.73C220.258 151.748 210.904 153.829 202.32 157.83L201.77 158.12L201.15 158.04C200.73 158.04 159.47 153.25 147.56 180.53L143.89 178.92C156.32 150.47 195.42 153.42 201.03 154.01C210.032 149.874 219.822 147.731 229.73 147.73C235.73 147.73 240.23 149.39 242.98 152.73C244.113 154.188 244.938 155.86 245.403 157.647C245.869 159.433 245.967 161.295 245.69 163.12L245.56 163.89L244.93 164.37C244.76 164.49 240.42 167.64 208.26 183.08C197.61 194.1 170.16 208.84 169 209.47Z" fill="#231F20"></path> <path d="M190 137.88L193 138.78C194.454 139.21 195.996 139.248 197.47 138.89L192.79 155C191.85 158.192 192.215 161.626 193.805 164.549C195.395 167.472 198.08 169.645 201.27 170.59L215.63 174.83C214.417 175.896 213.53 177.282 213.07 178.83L212.17 181.88C211.522 184.081 211.774 186.45 212.871 188.465C213.967 190.481 215.819 191.979 218.02 192.63L218.19 192.68C220.391 193.328 222.76 193.076 224.775 191.979C226.791 190.882 228.289 189.03 228.94 186.83L229.84 183.83C230.285 182.271 230.285 180.619 229.84 179.06L248.08 184.45C249.66 184.922 251.318 185.077 252.959 184.908C254.599 184.739 256.191 184.248 257.641 183.463C259.092 182.678 260.374 181.615 261.413 180.334C262.453 179.054 263.23 177.581 263.7 176L268.98 158.12C267.97 158.692 266.856 159.055 265.703 159.187C264.55 159.319 263.383 159.218 262.27 158.89L259.27 157.99C258.18 157.669 257.163 157.136 256.279 156.421C255.395 155.707 254.66 154.826 254.117 153.827C253.574 152.829 253.232 151.733 253.113 150.603C252.993 149.473 253.098 148.33 253.42 147.24V147.07C254.071 144.87 255.569 143.018 257.584 141.921C259.6 140.824 261.969 140.572 264.17 141.22L267.17 142.12C268.283 142.447 269.318 142.995 270.213 143.733C271.109 144.47 271.846 145.381 272.38 146.41L277.48 129.15C277.946 127.57 278.097 125.914 277.923 124.276C277.75 122.638 277.255 121.05 276.468 119.603C275.68 118.156 274.615 116.879 273.334 115.844C272.053 114.808 270.58 114.036 269 113.57L248.85 107.62C249.609 108.686 250.117 109.91 250.333 111.201C250.55 112.492 250.47 113.815 250.1 115.07L249.2 118.12C248.557 120.316 247.07 122.168 245.064 123.27C243.059 124.372 240.698 124.635 238.5 124L238.33 123.95C236.129 123.299 234.277 121.801 233.181 119.785C232.084 117.77 231.832 115.401 232.48 113.2L233.38 110.2C233.75 108.944 234.402 107.788 235.285 106.821C236.169 105.854 237.262 105.101 238.48 104.62L222.21 99.81C219.019 98.8704 215.586 99.2358 212.665 100.826C209.744 102.416 207.573 105.101 206.63 108.29L201.86 124.45C200.815 123.303 199.482 122.457 198 122L195 121.1C192.798 120.452 190.43 120.704 188.414 121.801C186.399 122.898 184.901 124.75 184.25 126.95V127.12C183.592 129.309 183.827 131.67 184.905 133.686C185.982 135.703 187.814 137.21 190 137.88Z" fill="#231F20"></path> <path d="M181.069 87.641L199.379 84.7109C199.379 84.7109 227.379 85.711 233.379 87.541C239.379 89.371 250.619 105.981 260.669 109.181C253.379 119.041 239.379 119.521 226.049 107.111C214.719 97.3709 217.379 100.611 217.379 100.611L187.719 103.711L181.069 87.641Z" fill="white"></path> <path d="M246.27 118.51C239.13 118.51 231.67 115.07 224.69 108.58C220.57 105.04 218.49 103.38 217.45 102.58L186.45 105.82L178.26 86.0399L199.26 82.6699H199.45C200.61 82.6699 227.79 83.6699 233.97 85.5899C237.07 86.5399 240.82 90.2899 245.16 94.5899C250.29 99.7299 256.1 105.54 261.28 107.19L263.94 108.04L262.28 110.28C260.469 112.837 258.068 114.92 255.281 116.353C252.494 117.786 249.403 118.525 246.27 118.51ZM217.17 98.0899C218.07 98.0899 218.62 98.0899 227.35 105.6C233.64 111.44 240.16 114.51 246.27 114.51C248.331 114.543 250.377 114.158 252.285 113.378C254.193 112.597 255.923 111.438 257.37 109.97C252.15 107.34 246.98 102.15 242.37 97.4999C238.74 93.8699 234.99 90.1099 232.84 89.4499C228.16 88.0199 207.41 86.9999 199.55 86.7099L183.92 89.2199L189.03 101.56L215.57 98.7899L215.89 98.1199L217.17 98.0899Z" fill="#231F20"></path> <path d="M165.72 127.37C165.72 127.37 180.38 113.71 185.72 104.71C190.38 108.04 203.72 108.37 203.72 108.37C203.72 108.37 218.05 124.37 233.38 112.04C223.72 102.37 217.2 94.6697 217.2 94.6697C217.2 94.6697 190.72 83.5397 174.38 87.6197C158.04 91.6997 139.23 111.7 132.38 120.43" fill="white"></path> <path d="M167.079 128.84L164.349 125.91C164.499 125.77 178.87 112.33 184 103.69L185.109 101.81L186.88 103.08C190.3 105.52 200.23 106.28 203.77 106.37H204.63L205.209 107.02C205.719 107.58 217.379 120.24 230.319 111.78C222.759 104.11 217.32 97.8801 216 96.3201C212.55 94.9401 189.26 85.9501 174.87 89.5401C158.79 93.5401 139.869 114.08 133.959 121.65L130.81 119.18C138.48 109.4 157.34 89.8001 173.9 85.6601C190.68 81.4701 216.899 92.3401 217.969 92.8101L218.42 92.9901L218.729 93.3601C218.789 93.4401 225.31 101.11 234.8 110.6L236.37 112.18L234.64 113.58C219.89 125.43 205.919 113.33 202.849 110.32C200.009 110.21 191.46 109.67 186.4 107.32C180.38 116.4 167.649 128.3 167.079 128.84Z" fill="#231F20"></path> <path d="M78.7194 207.711L166.049 221.001L175.719 480.501H32.7194C32.7194 480.501 22.0494 379.001 78.7194 207.711Z" fill="#35B34A"></path> <path d="M168.025 221.06L164.027 221.209L173.679 480.71L177.676 480.561L168.025 221.06Z" fill="#231F20"></path> <path d="M104.22 552.039C143.708 552.039 175.72 520.027 175.72 480.539C175.72 441.051 143.708 409.039 104.22 409.039C64.7314 409.039 32.7197 441.051 32.7197 480.539C32.7197 520.027 64.7314 552.039 104.22 552.039Z" fill="#35B34A"></path> <path d="M79.9299 153.86L78.3999 153.73C73.6791 153.342 69.0186 152.412 64.5099 150.96L63.0499 150.49L63.7299 136.84C58.49 134.527 53.6972 131.311 49.5698 127.34L37.2098 133.15L36.2098 131.98C33.1496 128.362 30.5125 124.406 28.3499 120.19L27.6499 118.83L37.7699 109.66C35.6937 104.321 34.5798 98.6572 34.4799 92.93L21.6299 88.29L21.7599 86.77C22.1494 82.0461 23.0788 77.3823 24.5299 72.87L25.0099 71.41L38.6599 72.09C40.9695 66.8506 44.1816 62.0577 48.1499 57.93L42.3499 45.57L43.5199 44.57C47.1368 41.5131 51.0888 38.8763 55.2999 36.71L56.6699 36.01L65.8298 46.13C71.1732 44.0585 76.8399 42.9448 82.5698 42.84L87.1998 30L88.7299 30.12C93.4509 30.513 98.1113 31.4457 102.62 32.9L104.08 33.37L103.4 47.02C108.642 49.3294 113.435 52.5454 117.56 56.52L129.92 50.71L130.92 51.88C133.98 55.498 136.617 59.4536 138.78 63.67L139.48 65.03L129.36 74.2C131.582 79.9183 132.702 86.0054 132.66 92.14V92.32H128.66V92.16C128.702 86.0724 127.504 80.0398 125.14 74.43L124.59 73.12L134.51 64.12C132.864 61.1309 130.968 58.2874 128.84 55.62L116.72 61.31L115.72 60.31C111.421 55.9267 106.268 52.4721 100.58 50.16L99.2699 49.62L99.9299 36.25C96.6623 35.2891 93.3158 34.6198 89.9299 34.25L85.3799 46.84H83.7899C77.7065 46.8078 71.6791 48.0051 66.0698 50.36L64.7699 50.92L55.7699 41C52.7737 42.6336 49.9291 44.5311 47.2699 46.67L52.9598 58.78L51.9598 59.78C47.5755 64.0805 44.118 69.2329 41.7999 74.92L41.2699 76.24L27.8899 75.57C26.9304 78.838 26.2612 82.1843 25.8899 85.57L38.4899 90.11V91.69C38.4477 97.7776 39.6454 103.81 42.0099 109.42L42.5599 110.73L32.6399 119.73C34.2759 122.722 36.1734 125.563 38.3099 128.22L50.4199 122.53L51.4199 123.53C55.7162 127.919 60.8698 131.378 66.5599 133.69L67.8699 134.23L67.2098 147.6C70.4775 148.561 73.8239 149.23 77.2098 149.6L81.7499 137.01H83.3499C87.008 137.04 90.6558 136.617 94.2098 135.75L95.2098 139.64C91.7361 140.477 88.1822 140.936 84.6099 141.01L79.9299 153.86Z" fill="#231F20"></path> <path d="M83.5696 113.6H83.4796C77.723 113.588 72.2067 111.291 68.1425 107.215C64.0783 103.138 61.7987 97.6143 61.8047 91.8577C61.8107 86.1011 64.1016 80.5823 68.1742 76.5139C72.2468 72.4454 77.7681 70.1602 83.5247 70.1602C89.2813 70.1602 94.8024 72.4454 98.875 76.5139C102.948 80.5823 105.239 86.1011 105.245 91.8577C105.251 97.6143 102.971 103.138 98.9069 107.215C94.8427 111.291 89.3262 113.588 83.5696 113.6ZM83.6497 74.2601C78.9664 74.2547 74.4711 76.1025 71.1455 79.4C67.8199 82.6975 65.934 87.1769 65.8997 91.8601C65.8811 96.5448 67.7235 101.045 71.022 104.372C74.3205 107.698 78.805 109.579 83.4896 109.6L83.5696 111.6V109.6C88.256 109.611 92.7547 107.759 96.0759 104.453C99.3972 101.147 101.269 96.6565 101.28 91.9701C101.29 87.2837 99.4387 82.7851 96.1325 79.4638C92.8262 76.1426 88.336 74.2707 83.6497 74.2601Z" fill="#231F20"></path> <path d="M451.789 168.289C450.899 168.289 438.309 168.139 430.269 160.139C425.989 155.889 423.819 150.239 423.819 143.359C423.819 131.359 434.029 123.839 443.509 121.969C454.509 119.799 464.089 124.439 467.929 133.779L464.219 135.299C460.489 126.189 451.149 124.539 444.279 125.889C436.349 127.459 427.819 133.589 427.819 143.359C427.819 149.139 429.599 153.829 433.089 157.309C440.089 164.219 451.539 164.309 451.809 164.309H538.319C566.109 164.309 569.319 149.409 569.319 138.199C569.319 129.369 560.719 112.059 540.819 112.059C520.439 112.059 516.729 121.249 516.689 121.339L512.999 119.899C513.189 119.419 517.759 108.039 540.869 108.039C561.799 108.039 573.369 125.859 573.369 138.179C573.369 158.179 561.599 168.289 538.369 168.289H451.839H451.789Z" fill="#231F20"></path> <path d="M448.12 123.61C448.01 123.27 445.51 115.11 449.65 108.45C452.19 104.34 456.65 101.77 462.77 100.81C478.18 98.4003 483.399 112.07 483.449 112.21L479.699 113.59C478.428 110.452 476.103 107.855 473.126 106.244C470.148 104.633 466.702 104.108 463.38 104.76C458.44 105.54 454.97 107.48 453.06 110.53C449.88 115.62 451.91 122.35 451.93 122.42L448.12 123.61Z" fill="#231F20"></path> <path d="M523.12 114.66L519.18 113.97C519.18 113.9 520.51 105.8 515.88 100.03C512.88 96.3396 508.13 94.3096 501.61 94.0296C495.25 93.6996 490.32 95.1696 486.96 98.3996C482.05 103.11 482.04 110 482.05 110.07H478.05C478.05 109.72 478.05 101.37 484.19 95.4796C488.39 91.4796 494.32 89.6196 501.82 89.9996C509.54 90.3996 515.33 92.9396 519.02 97.5796C524.77 104.76 523.19 114.26 523.12 114.66Z" fill="#231F20"></path> <path d="M450.33 80.9998H446.33V66.1298C446.325 62.8576 445.025 59.7203 442.715 57.4028C440.405 55.0852 437.272 53.7756 434 53.7598H400C396.721 53.7651 393.577 55.07 391.259 57.3887C388.94 59.7074 387.635 62.8507 387.63 66.1298V80.9998H383.63V66.1298C383.633 61.789 385.358 57.6267 388.427 54.5573C391.497 51.4879 395.659 49.7624 400 49.7598H434C438.341 49.7624 442.503 51.4879 445.572 54.5573C448.642 57.6267 450.367 61.789 450.37 66.1298L450.33 80.9998Z" fill="#231F20"></path> <path d="M363.62 82.2493H359.62V55.0493C359.628 47.5541 362.609 40.3681 367.909 35.0682C373.209 29.7682 380.395 26.7872 387.89 26.7793H446.09C453.585 26.7872 460.771 29.7682 466.071 35.0682C471.371 40.3681 474.352 47.5541 474.36 55.0493V81.0493H470.36V55.0493C470.355 48.6141 467.796 42.444 463.246 37.8937C458.695 33.3433 452.525 30.7846 446.09 30.7793H387.89C381.455 30.7846 375.285 33.3433 370.734 37.8937C366.184 42.444 363.625 48.6141 363.62 55.0493V82.2493Z" fill="#231F20"></path> <path d="M337.41 81.93H333.41V41.28C333.413 30.3379 337.759 19.8442 345.493 12.1042C353.227 4.36409 363.718 0.0106 374.66 0H459.32C470.255 0.0105856 480.74 4.35858 488.473 12.09C496.206 19.8214 500.557 30.3048 500.57 41.24V81H496.57V41.28C496.567 31.3987 492.643 21.9225 485.659 14.9326C478.674 7.94267 469.201 4.0106 459.32 4H374.66C364.786 4.01058 355.319 7.93715 348.336 14.9184C341.352 21.8997 337.423 31.3657 337.41 41.24V81.93Z" fill="#231F20"></path> <path d="M59.4199 181.66H31.9199V185.66H59.4199V181.66Z" fill="#231F20"></path> <path d="M47.6699 169.91H43.6699V197.41H47.6699V169.91Z" fill="#231F20"></path> <path d="M59.4199 182.66H31.9199V184.66H59.4199V182.66Z" fill="black"></path> <path d="M46.6699 169.91H44.6699V197.41H46.6699V169.91Z" fill="black"></path> <path d="M41.7197 228.539H0.219727V232.539H41.7197V228.539Z" fill="#231F20"></path> <path d="M34.7197 248.539H4.71973V252.539H34.7197V248.539Z" fill="#231F20"></path> <path d="M29.7197 278.039H4.71973V282.039H29.7197V278.039Z" fill="#231F20"></path> <path d="M179.179 32.9491L159.733 52.3945L162.562 55.223L182.007 35.7775L179.179 32.9491Z" fill="#231F20"></path> <path d="M162.562 32.9392L159.733 35.7676L179.179 55.213L182.007 52.3846L162.562 32.9392Z" fill="#231F20"></path> <path d="M179.886 33.6561L160.44 53.1016L161.855 54.5158L181.3 35.0703L179.886 33.6561Z" fill="black"></path> <path d="M161.855 33.6463L160.44 35.0605L179.886 54.506L181.3 53.0918L161.855 33.6463Z" fill="black"></path> <path d="M276.72 59.5391C274.544 59.5391 272.417 58.8939 270.608 57.6852C268.8 56.4765 267.39 54.7586 266.557 52.7486C265.725 50.7386 265.507 48.5269 265.931 46.3931C266.356 44.2593 267.403 42.2993 268.941 40.7609C270.48 39.2225 272.44 38.1749 274.574 37.7504C276.707 37.326 278.919 37.5438 280.929 38.3764C282.939 39.209 284.657 40.6189 285.866 42.4278C287.075 44.2368 287.72 46.3635 287.72 48.5391C287.72 51.4565 286.561 54.2543 284.498 56.3172C282.435 58.3801 279.637 59.5391 276.72 59.5391ZM276.72 41.5391C275.335 41.5391 273.982 41.9496 272.831 42.7188C271.68 43.488 270.782 44.5812 270.253 45.8603C269.723 47.1394 269.584 48.5468 269.854 49.9047C270.124 51.2626 270.791 52.5099 271.77 53.4888C272.749 54.4678 273.996 55.1345 275.354 55.4046C276.712 55.6747 278.119 55.5361 279.398 55.0062C280.678 54.4764 281.771 53.5792 282.54 52.4281C283.309 51.2769 283.72 49.9235 283.72 48.5391C283.72 46.6826 282.982 44.9021 281.669 43.5893C280.357 42.2766 278.576 41.5391 276.72 41.5391Z" fill="#231F20"></path> <path d="M255.439 32.3691H206.439V36.3691H255.439V32.3691Z" fill="#231F20"></path> <path d="M259.22 9.03906H210.22V13.0391H259.22V9.03906Z" fill="#231F20"></path> <path d="M194.75 9.03906H166.47V13.0391H194.75V9.03906Z" fill="#231F20"></path> <path d="M293.39 9.03906H274.58V13.0391H293.39V9.03906Z" fill="#231F20"></path> <path d="M253.22 52.3398H229.72V56.3398H253.22V52.3398Z" fill="#231F20"></path> <path d="M620.22 48.4297C618.044 48.4297 615.917 47.7846 614.108 46.5759C612.3 45.3672 610.89 43.6492 610.057 41.6392C609.225 39.6292 609.007 37.4175 609.431 35.2837C609.856 33.1499 610.903 31.1899 612.441 29.6515C613.98 28.1131 615.94 27.0655 618.074 26.6411C620.207 26.2166 622.419 26.4345 624.429 27.267C626.439 28.0996 628.157 29.5095 629.366 31.3184C630.575 33.1274 631.22 35.2541 631.22 37.4297C631.22 40.3471 630.061 43.145 627.998 45.2079C625.935 47.2708 623.137 48.4297 620.22 48.4297ZM620.22 30.4297C618.835 30.4297 617.482 30.8402 616.331 31.6094C615.18 32.3786 614.282 33.4718 613.753 34.7509C613.223 36.03 613.084 37.4375 613.354 38.7953C613.624 40.1532 614.291 41.4005 615.27 42.3795C616.249 43.3584 617.496 44.0251 618.854 44.2952C620.212 44.5653 621.619 44.4267 622.898 43.8969C624.178 43.367 625.271 42.4698 626.04 41.3187C626.809 40.1676 627.22 38.8142 627.22 37.4297C627.22 35.5732 626.482 33.7927 625.169 32.48C623.857 31.1672 622.076 30.4297 620.22 30.4297Z" fill="#231F20"></path> <path d="M598.4 16.4102H521.37V20.4102H598.4V16.4102Z" fill="#231F20"></path> <path d="M576.65 35.4297H531.38V39.4297H576.65V35.4297Z" fill="black"></path> <path d="M598.05 54.4492H566.72V58.4492H598.05V54.4492Z" fill="#231F20"></path> <path d="M551.21 54.4492H534.17V58.4492H551.21V54.4492Z" fill="#231F20"></path> <path d="M500.569 175.971H496.569V213.571H500.569V175.971Z" fill="black"></path> <path d="M592.72 92.5H551.22V96.5H592.72V92.5Z" fill="#231F20"></path> <path d="M633.31 73.4707H586.05V77.4707H633.31V73.4707Z" fill="#231F20"></path> <path d="M633.31 111.52H583.22V115.52H633.31V111.52Z" fill="#231F20"></path> <path d="M633.31 130.539H592.72V134.539H633.31V130.539Z" fill="#231F20"></path> <path d="M665.719 278.539H568.719C565.669 278.539 562.744 279.751 560.588 281.907C558.431 284.064 557.219 286.989 557.219 290.039V317.409L526.439 340.409L557.219 336.279V365.999C557.219 369.049 558.431 371.974 560.588 374.131C562.744 376.287 565.669 377.499 568.719 377.499H665.719C668.769 377.499 671.695 376.287 673.851 374.131C676.008 371.974 677.219 369.049 677.219 365.999V289.999C677.209 286.956 675.993 284.041 673.837 281.893C671.682 279.745 668.763 278.539 665.719 278.539Z" fill="white"></path> <path d="M665.719 379.54H568.719C565.14 379.537 561.708 378.114 559.177 375.583C556.645 373.052 555.222 369.62 555.219 366.04V338.53L519.06 343.38L555.219 316.38V290C555.222 286.42 556.645 282.988 559.177 280.457C561.708 277.926 565.14 276.503 568.719 276.5H665.719C669.299 276.503 672.731 277.926 675.263 280.457C677.794 282.988 679.217 286.42 679.219 290V366C679.222 367.775 678.875 369.534 678.198 371.175C677.521 372.817 676.527 374.309 675.274 375.566C674.02 376.823 672.531 377.821 670.892 378.503C669.253 379.185 667.495 379.537 665.719 379.54ZM559.219 334V366C559.222 368.519 560.224 370.934 562.005 372.715C563.786 374.496 566.201 375.497 568.719 375.5H665.719C668.237 375.495 670.651 374.492 672.431 372.712C674.212 370.931 675.214 368.518 675.219 366V290C675.214 287.482 674.212 285.069 672.431 283.288C670.651 281.508 668.237 280.505 665.719 280.5H568.719C566.201 280.503 563.786 281.504 562.005 283.285C560.224 285.066 559.222 287.481 559.219 290V318.37L533.81 337.37L559.219 334Z" fill="#231F20"></path> <path d="M663.72 293.039H571.22V361.039H663.72V293.039Z" fill="white"></path> <path d="M665.72 363H569.22V291H665.72V363ZM573.22 359H661.72V295H573.22V359Z" fill="#231F20"></path> <path d="M571.22 352.539L586.22 334.539L605.22 349.539L631.22 315.039L663.72 352.539V361.039H571.22V352.539Z" fill="#231F20"></path> <path d="M592.05 315.039C595.364 315.039 598.05 312.353 598.05 309.039C598.05 305.725 595.364 303.039 592.05 303.039C588.736 303.039 586.05 305.725 586.05 309.039C586.05 312.353 588.736 315.039 592.05 315.039Z" fill="#231F20"></path> <path d="M499.22 247.369H211.55C204.094 247.369 198.05 253.413 198.05 260.869V494.199C198.05 501.655 204.094 507.699 211.55 507.699H499.22C506.676 507.699 512.72 501.655 512.72 494.199V260.869C512.72 253.413 506.676 247.369 499.22 247.369Z" fill="#231F20"></path> <path d="M499.079 273.039H211.689V498.209H499.079V273.039Z" fill="white"></path> <path d="M290.72 285.039H286.72V480.539H290.72V285.039Z" fill="#231F20"></path> <path d="M381.72 297.539H311.72V301.539H381.72V297.539Z" fill="#231F20"></path> <path d="M264.72 297.539H229.72V301.539H264.72V297.539Z" fill="#231F20"></path> <path d="M264.72 313.039H229.72V317.039H264.72V313.039Z" fill="#231F20"></path> <path d="M404.209 313.039H310.81V317.039H404.209V313.039Z" fill="#231F20"></path> <path d="M456.209 328.539H310.81V332.539H456.209V328.539Z" fill="#231F20"></path> <path d="M456.209 344.039H310.81V348.039H456.209V344.039Z" fill="#231F20"></path> <path d="M456.22 359.039H390.99V363.039H456.22V359.039Z" fill="#231F20"></path> <path d="M375.709 359.039H310.81V363.039H375.709V359.039Z" fill="#231F20"></path> <path d="M456.209 374.039H310.81V378.039H456.209V374.039Z" fill="#231F20"></path> <path d="M456.22 389.039H367.72V393.039H456.22V389.039Z" fill="#231F20"></path> <path d="M349.709 389.039H310.81V393.039H349.709V389.039Z" fill="#231F20"></path> <path d="M456.209 404.039H310.81V408.039H456.209V404.039Z" fill="#231F20"></path> <path d="M456.209 419.039H310.81V423.039H456.209V419.039Z" fill="#231F20"></path> <path d="M264.72 328.539H229.72V332.539H264.72V328.539Z" fill="#231F20"></path> <path d="M264.72 344.039H229.72V348.039H264.72V344.039Z" fill="#231F20"></path> <path d="M275.22 508.47L217.65 505.74C217.65 505.74 211.35 512.94 224.85 515.04C238.35 517.14 288.75 529.74 307.95 536.64C346.95 541.14 414.45 545.64 414.45 545.64L415.15 496.82L275.22 508.47Z" fill="white"></path> <path d="M416.42 547.779L414.32 547.639C413.64 547.639 346.32 543.079 307.72 538.639H307.49L307.27 538.569C288.2 531.709 237.88 519.129 224.54 517.059C218.87 516.179 215.54 514.319 214.54 511.379C213.54 508.439 215.08 505.709 216.16 504.469L216.8 503.739L275.21 506.499L417.21 494.689L416.42 547.779ZM308.42 534.679C343.1 538.679 400.79 542.679 412.49 543.509L413.13 498.999L275.27 510.469H275.14L218.67 507.799C218.462 508.12 218.321 508.479 218.256 508.856C218.191 509.232 218.202 509.618 218.29 509.989C218.53 510.629 219.68 512.219 225.16 513.079C238.57 515.149 289 527.749 308.41 534.679H308.42Z" fill="#231F20"></path> <path d="M412 493.539L380.43 499.719C380.43 499.719 361.08 492.839 341.58 495.239C322.08 497.639 317.88 497.939 317.88 497.939C317.88 497.939 269.88 489.939 273.18 508.639C299.28 512.639 316.38 516.539 316.38 516.539C333.6 521.729 342.83 525.679 361.09 523.429" fill="white"></path> <path d="M351.139 526.08C340.439 526.08 332.489 523.62 321.699 520.28C319.839 519.7 317.899 519.1 315.839 518.48C314.659 518.21 297.759 514.48 272.839 510.62L271.419 510.4L271.169 508.99C270.825 507.403 270.882 505.755 271.336 504.195C271.79 502.636 272.627 501.214 273.769 500.06C283.069 490.67 313.369 495.19 317.919 495.93C319.019 495.84 324.469 495.33 341.299 493.26C359.469 491.02 377.209 496.54 380.529 497.65L411.529 491.58L412.299 495.5L380.189 501.78L379.679 501.6C379.489 501.53 360.529 494.92 341.739 497.23C322.419 499.61 318.119 499.93 317.939 499.94H317.699H317.469C308.399 498.43 283.379 496.02 276.569 502.94C276.035 503.458 275.614 504.08 275.332 504.769C275.049 505.457 274.913 506.196 274.929 506.94C299.929 510.83 316.579 514.59 316.739 514.63H316.879C318.969 515.26 320.939 515.87 322.879 516.46C336.319 520.62 345.199 523.37 360.819 521.46L361.309 525.46C357.935 525.876 354.539 526.083 351.139 526.08Z" fill="#231F20"></path> <path d="M605.559 545.968C634.454 543.557 655.923 518.179 653.512 489.284C651.101 460.39 625.722 438.92 596.828 441.332C567.933 443.743 546.464 469.121 548.875 498.015C551.287 526.91 576.665 548.379 605.559 545.968Z" fill="#35B34A"></path> <path d="M601.22 493.54L613 544.7C613 544.7 555.22 563 390.72 555V488.5C537.72 450.05 589.46 442.33 589.46 442.33L601.22 493.54Z" fill="#35B34A"></path> <path d="M391.22 490.471L390.22 486.601C535.65 448.601 588.65 440.471 589.22 440.391L589.81 444.391C589.23 444.431 536.37 452.511 391.22 490.471Z" fill="#231F20"></path> <path d="M322.74 202.611L338.05 201.261V154.711H369.38L375.88 202.871L387.73 204.451C387.73 204.451 384.65 224.851 353.98 224.851C323.31 224.851 322.74 202.611 322.74 202.611Z" fill="white"></path> <path d="M354 226.851C321.76 226.851 320.76 202.851 320.76 202.661V200.781L336.12 199.431V152.711H371.2L377.73 201.091L390.08 202.741L389.77 204.741C389.67 205.001 386 226.851 354 226.851ZM325 204.421C325.93 209.421 330.6 222.851 354 222.851C377.14 222.851 383.58 210.971 385.24 206.141L374.12 204.651L367.65 156.711H340.07V203.091L325 204.421Z" fill="#231F20"></path> <path d="M338.05 188.85L354.85 169.1L338.05 175.24V188.85Z" fill="#231F20"></path> <path d="M353.88 167.5C353.88 167.5 336.72 180.37 326.05 174.37C318.11 169.91 322.73 150.07 328.91 137.28C331.03 132.88 333.34 129.28 335.38 127.5C343.38 120.37 355.72 117.71 367.72 124.71C379.72 131.71 372.05 154 353.88 167.5Z" fill="white"></path> <path d="M353.88 167.5C353.88 167.5 336.72 180.37 326.05 174.37C318.11 169.91 322.73 150.07 328.91 137.28C331.03 132.88 333.34 129.28 335.38 127.5C343.38 120.37 355.72 117.71 367.72 124.71" fill="white"></path> <path d="M332.62 178C329.985 178.051 327.383 177.413 325.07 176.15C315.25 170.63 321.07 148.87 327.07 136.45C328.7 133.07 331.23 128.53 334.01 126.05C341.64 119.25 354.75 114.89 368.68 123.05L366.68 126.5C354.59 119.45 343.26 123.2 336.68 129.07C334.92 130.64 332.68 133.97 330.68 138.22C324.11 151.81 320.98 169.32 327 172.7C336.4 177.99 352.49 166.09 352.65 165.97L355.05 169.17C354.49 169.54 343.12 178 332.62 178Z" fill="#231F20"></path> <path d="M331.049 100.611C337.719 100.441 339.529 111.541 339.529 111.541C339.529 111.541 346.379 98.8406 355.379 100.611C364.379 102.381 359.379 114.361 359.379 114.361C359.379 114.361 365.219 107.911 371.379 110.041C376.549 111.821 375.719 118.371 375.719 118.371C375.719 118.371 382.209 115.261 387.149 119.591C394.149 125.761 386.049 143.711 386.049 143.711C386.049 143.711 390.719 155.371 384.049 156.371C385.379 164.041 383.049 168.961 379.379 167.501C379.379 172.711 374.929 176.341 371.819 172.021L369.379 154.711L362.619 145.311C362.619 145.311 353.619 137.201 352.049 127.501C347.379 132.371 331.639 130.711 331.639 130.711C331.639 130.711 322.709 127.461 321.829 115.211C321.079 104.651 327.579 100.691 331.049 100.611Z" fill="#231F20"></path> <path d="M362.62 145.31C362.62 145.31 369.82 138.85 376.07 141.89C382.32 144.93 379.44 157.17 364.9 157.58" fill="white"></path> <path d="M364.93 158.579V156.579C373.4 156.339 377.32 152.049 378.09 148.449C378.63 145.939 377.71 143.769 375.69 142.789C370.1 140.079 363.41 145.989 363.34 146.049L362 144.559C362.32 144.279 369.78 137.699 376.56 140.989C377.96 141.7 379.072 142.873 379.707 144.308C380.343 145.744 380.464 147.355 380.05 148.869C379.07 153.179 374.57 158.309 364.93 158.579Z" fill="#231F20"></path> <path d="M332.29 160.669C331.662 160.712 331.032 160.618 330.445 160.391C329.857 160.165 329.327 159.813 328.89 159.359C328.601 159.034 328.382 158.654 328.246 158.241C328.111 157.828 328.061 157.392 328.1 156.959C328.32 153.499 334 148.289 335.73 146.779L338.36 149.779C335.54 152.239 332.89 155.269 332.24 156.699C333.64 156.759 337.13 155.449 340.06 153.779L342.06 157.259C339.91 158.489 335.63 160.669 332.29 160.669Z" fill="#231F20"></path> <path d="M336.649 165.579C334.607 165.597 332.576 165.258 330.649 164.579L332.119 160.849L331.379 162.719L332.109 160.849C334.547 161.707 337.184 161.826 339.688 161.191C342.193 160.556 344.455 159.195 346.189 157.279L349.189 159.969C347.627 161.752 345.697 163.177 343.533 164.145C341.368 165.113 339.02 165.603 336.649 165.579Z" fill="#231F20"></path> <path d="M353.629 142C353.629 141.53 353.289 141 352.489 140.49C350.664 139.459 348.583 138.966 346.489 139.07C344.609 139.13 341.909 140.88 344.019 142.82C345.599 144.34 353.749 146 353.629 142Z" fill="#231F20"></path> <path d="M326.8 142.789C326.92 142.878 327.047 142.959 327.18 143.029C329.93 144.549 339.63 140.349 336.04 138.029C334 136.659 324.18 140.819 326.8 142.789Z" fill="#231F20"></path> <path d="M347.67 149.33C347.67 149.66 347.572 149.983 347.389 150.258C347.205 150.533 346.944 150.747 346.639 150.873C346.334 150.999 345.998 151.033 345.674 150.968C345.35 150.904 345.053 150.745 344.819 150.511C344.586 150.277 344.427 149.98 344.362 149.656C344.298 149.332 344.331 148.996 344.457 148.691C344.584 148.386 344.798 148.125 345.072 147.942C345.347 147.758 345.67 147.66 346 147.66C346.22 147.659 346.438 147.701 346.641 147.785C346.844 147.868 347.029 147.991 347.184 148.146C347.339 148.302 347.462 148.486 347.546 148.69C347.629 148.893 347.671 149.11 347.67 149.33Z" fill="#231F20"></path> <path d="M331.64 149.33C331.607 149.75 331.418 150.141 331.109 150.427C330.8 150.713 330.395 150.871 329.975 150.871C329.554 150.871 329.149 150.713 328.84 150.427C328.532 150.141 328.342 149.75 328.31 149.33C328.292 149.101 328.322 148.87 328.397 148.653C328.473 148.435 328.593 148.236 328.749 148.067C328.905 147.898 329.095 147.763 329.306 147.671C329.517 147.579 329.744 147.531 329.975 147.531C330.205 147.531 330.433 147.579 330.643 147.671C330.854 147.763 331.044 147.898 331.2 148.067C331.357 148.236 331.476 148.435 331.552 148.653C331.628 148.87 331.657 149.101 331.64 149.33Z" fill="#231F20"></path> <path d="M673.1 178.211H575C571.587 178.211 568.313 179.567 565.9 181.981C563.486 184.394 562.13 187.668 562.13 191.081V208.301L536.46 220.001L562.1 224.001V224.421C562.124 227.825 563.494 231.081 565.911 233.477C568.328 235.874 571.596 237.216 575 237.211H673.13C676.544 237.208 679.818 235.85 682.231 233.435C684.644 231.02 686 227.745 686 224.331V191.081C686 189.388 685.666 187.712 685.017 186.149C684.369 184.585 683.418 183.165 682.22 181.97C681.022 180.774 679.599 179.827 678.034 179.182C676.469 178.537 674.793 178.207 673.1 178.211Z" fill="white"></path> <path d="M673.099 239.211H575C571.283 239.206 567.702 237.81 564.962 235.299C562.221 232.788 560.519 229.343 560.189 225.641L529.56 220.911L560.099 207.001V191.081C560.105 187.134 561.677 183.35 564.471 180.562C567.265 177.773 571.052 176.208 575 176.211H673.13C677.072 176.216 680.851 177.785 683.638 180.572C686.426 183.36 687.994 187.139 688 191.081V224.331C687.998 226.286 687.612 228.222 686.862 230.028C686.113 231.834 685.015 233.475 683.631 234.857C682.248 236.239 680.605 237.334 678.798 238.081C676.991 238.828 675.055 239.212 673.099 239.211ZM543.39 219.001L564.099 222.201V224.331C564.101 225.761 564.384 227.177 564.932 228.498C565.481 229.818 566.284 231.018 567.296 232.028C568.308 233.039 569.51 233.84 570.831 234.386C572.153 234.932 573.569 235.212 575 235.211H673.13C676.013 235.208 678.778 234.061 680.816 232.021C682.855 229.981 684 227.215 684 224.331V191.081C684 188.198 682.854 185.433 680.816 183.395C678.777 181.356 676.012 180.211 673.13 180.211H575C572.117 180.214 569.354 181.36 567.316 183.398C565.278 185.436 564.132 188.199 564.13 191.081V209.591L543.39 219.001Z" fill="#231F20"></path> <path d="M241.31 367.83H134.12C128.188 367.83 123.38 372.639 123.38 378.57V466.65C123.38 472.582 128.188 477.39 134.12 477.39H241.31C247.241 477.39 252.05 472.582 252.05 466.65V378.57C252.05 372.639 247.241 367.83 241.31 367.83Z" fill="white"></path> <path d="M241.31 479.39H134.12C130.742 479.387 127.503 478.044 125.114 475.656C122.726 473.267 121.383 470.028 121.38 466.65V378.57C121.383 375.192 122.726 371.953 125.114 369.564C127.503 367.176 130.742 365.833 134.12 365.83H241.31C244.688 365.833 247.927 367.176 250.316 369.564C252.704 371.953 254.047 375.192 254.05 378.57V466.65C254.047 470.028 252.704 473.267 250.316 475.656C247.927 478.044 244.688 479.387 241.31 479.39ZM134.12 369.83C131.803 369.833 129.581 370.754 127.943 372.393C126.304 374.031 125.383 376.253 125.38 378.57V466.65C125.383 468.967 126.304 471.189 127.943 472.827C129.581 474.466 131.803 475.387 134.12 475.39H241.31C243.627 475.387 245.849 474.466 247.487 472.827C249.126 471.189 250.047 468.967 250.05 466.65V378.57C250.047 376.253 249.126 374.031 247.487 372.393C245.849 370.754 243.627 369.833 241.31 369.83H134.12Z" fill="#231F20"></path> <path d="M252.05 387.891H123.38V391.891H252.05V387.891Z" fill="#231F20"></path> <path d="M196.504 405.07L173.253 455.068L176.88 456.755L200.131 406.757L196.504 405.07Z" fill="#231F20"></path> <path d="M207.509 446.9L205.589 443.38L230.119 430.03L203.699 417.7L205.389 414.08L238.979 429.75L207.509 446.9Z" fill="#231F20"></path> <path d="M169.25 446.9L137.77 429.75L171.359 414.08L173.05 417.7L146.64 430.03L171.16 443.38L169.25 446.9Z" fill="#231F20"></path> </svg> 