<svg xmlns="http://www.w3.org/2000/svg" width="180" height="37" viewBox="0 0 180 37">
    <path fill="#000078" fill-rule="evenodd" d="M179.17 10.733c0-5.688-4.778-10.265-14.472-10.265-10.317 0-15.623 5.837-15.623 13.05h9.475c0-3.746 2.062-5.699 6.01-5.699 3.739 0 5.33 1.359 5.33 3.509 0 2.149-1.177 3.613-4.084 3.613l-5.36.004v6.165l5.22-.004c3.325 0 4.71 1.457 4.71 3.815 0 2.219-1.454 4.328-5.678 4.328-4.57 0-6.647-2.357-6.647-6.241h-9.45c0 8.808 6.127 13.524 16.097 13.524 9.831 0 15.302-4.162 15.302-10.82 0-3.467-1.8-5.964-5.262-7.42 2.977-1.595 4.431-4.508 4.431-7.56zm-45.711 24.862h9.724V1.406h-9.724v3.74c-2.505-3.15-5.807-4.443-9.397-4.443-9.138 0-16.416 7.118-16.416 17.797s7.278 17.797 16.416 17.797c3.59 0 6.892-1.294 9.397-4.443v3.74zm.677-17.095c0 5.408-4.004 9.367-8.8 9.367-4.726 0-8.799-3.959-8.799-9.367 0-5.408 4.073-9.367 8.8-9.367 4.795 0 8.799 3.959 8.799 9.367zm-42.89-8.89h14.13V1.405H81.528v34.19h9.719V9.61zM76.728 18.5c0-10.217-8.19-18.5-18.292-18.5-10.103 0-18.292 8.283-18.292 18.5S48.334 37 58.436 37c10.103 0 18.292-8.283 18.292-18.5zm-7.878 1.77c-5.607 1.346-9.512 6.17-10.414 13.94-.902-7.77-4.807-12.594-10.414-13.94-.964-6.082 4.345-11.401 10.414-11.41 6.069.009 11.378 5.328 10.414 11.41zM8.884 18.5c0-5.55 3.705-10.07 9.03-10.07 4.091 0 7.487 2.264 8.336 5.62h9.262C35.032 6.264 28 0 18.128 0 7.786 0 0 7.617 0 18.503 0 29.39 7.786 37 18.128 37c10.045 0 17.144-6.235 17.384-14.753H26.25c-.722 3.894-3.936 6.322-8.335 6.322-4.863 0-9.031-4.376-9.031-10.069z"/>
</svg>
